<?xml version="1.0" standalone="no"?>
<!DOCTYPE svg PUBLIC "-//W3C//DTD SVG 20010904//EN"
 "http://www.w3.org/TR/2001/REC-SVG-20010904/DTD/svg10.dtd">
<svg version="1.0" xmlns="http://www.w3.org/2000/svg"
 width="300.000000pt" height="400.000000pt" viewBox="20 35 400.000000 400.000000"
 preserveAspectRatio="xMidYMid meet">
<metadata>
Created by potrace 1.10, written by Peter Selinger 2001-2011
</metadata>
<g transform="translate(0.000000,400.000000) scale(0.100000,-0.100000)"
fill="#000000" stroke="none">
<path d="M1078 3971 c-18 -19 -23 -33 -17 -42 7 -11 9 -10 9 4 0 9 4 17 9 17
5 0 12 9 16 19 3 11 14 22 23 24 14 4 14 5 1 6 -9 0 -27 -12 -41 -28z"/>
<path d="M1155 3988 c-25 -14 -41 -34 -60 -73 -15 -30 -15 -30 2 -6 41 56 51
63 108 76 l60 13 -45 1 c-25 0 -54 -5 -65 -11z"/>
<path d="M1266 3983 c-4 -10 -1 -11 12 -4 11 6 24 6 35 -1 12 -6 35 -5 70 2
29 7 76 11 104 9 28 -2 49 -1 46 4 -2 4 -62 7 -133 6 -100 -1 -130 -5 -134
-16z"/>
<path d="M1579 3966 c38 -29 41 -30 41 -18 0 5 -12 15 -27 23 -47 23 -49 22
-14 -5z"/>
<path d="M955 3960 c-10 -11 -15 -20 -11 -20 4 0 16 9 28 20 12 11 17 20 11
20 -5 0 -18 -9 -28 -20z"/>
<path d="M1425 3970 c-4 -7 3 -8 21 -4 21 6 25 4 19 -7 -8 -12 -6 -12 8 0 9 7
17 15 17 17 0 9 -59 3 -65 -6z"/>
<path d="M1145 3935 c-17 -13 -28 -25 -25 -28 3 -3 18 6 34 19 37 32 29 40 -9
9z"/>
<path d="M1480 3951 c0 -10 160 -75 167 -68 2 3 -12 17 -33 31 -25 17 -40 22
-45 15 -5 -8 -8 -8 -13 0 -4 6 -4 11 1 11 4 0 1 5 -7 10 -19 12 -70 13 -70 1z
m55 -11 c3 -6 -1 -7 -9 -4 -18 7 -21 14 -7 14 6 0 13 -4 16 -10z"/>
<path d="M1285 3939 c-4 -6 -13 -8 -21 -5 -8 3 -14 1 -14 -4 0 -5 -6 -7 -13
-4 -8 3 -19 -6 -25 -21 l-12 -27 29 21 c16 12 33 21 39 21 5 0 15 7 22 15 7 8
10 15 7 15 -3 0 -9 -5 -12 -11z"/>
<path d="M1363 3943 c-13 -2 -23 -8 -23 -13 0 -4 10 -6 22 -2 16 4 19 2 13 -9
-5 -8 -4 -10 0 -6 7 6 18 41 12 36 -1 -1 -12 -4 -24 -6z"/>
<path d="M1428 3943 c7 -3 16 -2 19 1 4 3 -2 6 -13 5 -11 0 -14 -3 -6 -6z"/>
<path d="M1189 3913 c-13 -16 -12 -17 4 -4 9 7 17 15 17 17 0 8 -8 3 -21 -13z"/>
<path d="M1310 3910 c0 -5 -6 -7 -13 -4 -8 3 -14 -2 -14 -10 0 -11 5 -13 18
-5 22 11 34 29 20 29 -6 0 -11 -4 -11 -10z"/>
<path d="M1431 3916 c2 -3 16 -6 31 -8 15 -2 30 -7 34 -11 4 -4 14 -7 22 -7 7
0 27 -9 44 -21 16 -12 32 -19 34 -16 3 3 21 -1 40 -9 33 -14 34 -14 23 4 -7
10 -17 19 -23 20 -44 5 -68 12 -102 29 -34 17 -116 32 -103 19z"/>
<path d="M1056 3888 c-3 -13 -2 -26 3 -31 4 -4 8 6 9 23 1 36 -3 39 -12 8z"/>
<path d="M991 3868 c-1 -9 4 -20 9 -23 6 -4 8 -10 5 -14 -2 -5 4 -16 15 -26
25 -23 26 -11 1 23 -10 15 -21 34 -24 42 -4 12 -6 12 -6 -2z"/>
<path d="M1081 3864 c0 -11 3 -14 6 -6 3 7 2 16 -1 19 -3 4 -6 -2 -5 -13z"/>
<path d="M1480 3864 c8 -10 21 -25 29 -34 9 -9 10 -15 3 -18 -8 -2 -8 -11 -1
-29 5 -14 7 -28 4 -31 -3 -3 -5 0 -5 6 0 6 -7 9 -15 6 -8 -4 -17 1 -21 10 -12
32 -43 18 -65 -29 -20 -43 -39 -65 -24 -27 4 9 8 26 9 37 3 52 63 87 84 49 8
-15 10 -15 15 0 4 11 -3 20 -22 30 -25 14 -29 13 -48 -6 -17 -17 -24 -18 -42
-8 -17 9 -26 9 -37 -1 -16 -13 -18 -67 -3 -89 7 -11 9 -3 7 30 -3 41 -1 45 22
48 21 2 23 1 10 -10 -9 -8 -14 -27 -13 -48 1 -19 2 -43 2 -54 1 -11 6 -16 15
-13 10 4 15 -4 18 -29 2 -19 0 -34 -4 -34 -4 0 -8 9 -8 21 0 11 -4 18 -9 14
-6 -3 -14 3 -20 12 -8 14 -10 15 -11 3 0 -9 8 -22 18 -31 9 -8 26 -26 37 -40
11 -14 30 -28 43 -31 34 -9 26 6 -10 21 -19 7 -27 15 -20 18 6 2 10 9 6 14 -3
5 0 9 5 9 6 0 11 -6 11 -14 0 -8 13 -17 30 -21 16 -4 32 -10 35 -15 7 -11 35
-2 35 11 0 4 -7 5 -17 2 -11 -4 -14 -3 -9 5 4 7 15 12 24 12 25 0 82 -38 82
-54 0 -23 41 -48 57 -34 19 16 52 -16 46 -45 -9 -42 -37 -86 -48 -77 -7 5 -10
-8 -10 -41 0 -27 2 -49 5 -49 3 0 12 17 21 38 8 20 23 54 32 75 12 26 17 66
17 130 0 64 4 99 14 113 13 18 11 25 -15 67 -16 26 -34 47 -39 47 -6 0 -10 6
-10 13 -1 13 -69 51 -78 42 -3 -3 -1 -5 5 -5 18 0 100 -83 117 -119 19 -40 20
-44 6 -36 -6 4 -10 -7 -10 -25 0 -25 -4 -31 -17 -28 -11 2 -17 11 -15 22 2 9
-2 24 -9 32 -10 12 -9 13 4 8 9 -3 18 -13 20 -22 3 -10 5 -1 6 18 1 40 -37 79
-106 108 -24 9 -43 20 -43 24 0 4 -17 15 -37 24 -34 14 -36 17 -18 24 16 7 17
9 3 9 -9 1 -25 4 -35 8 -16 6 -17 5 -3 -13z m80 -48 c0 -2 -7 -7 -16 -10 -8
-3 -12 -2 -9 4 6 10 25 14 25 6z m11 -39 c13 -6 26 -21 27 -32 6 -30 12 -31
12 -2 0 25 1 26 28 15 33 -15 72 -48 72 -62 0 -6 -7 -3 -14 6 -7 10 -16 15
-19 11 -4 -3 -7 -2 -7 4 0 16 -60 2 -70 -17 -5 -9 -6 -20 -3 -24 3 -3 1 -6 -7
-6 -10 0 -10 -3 0 -15 7 -8 10 -21 7 -30 -5 -12 -12 -12 -39 -3 -18 6 -36 16
-39 21 -4 5 -12 1 -18 -10 -5 -11 -7 -23 -4 -27 3 -3 1 -6 -5 -6 -22 0 -24 22
-3 41 12 11 21 31 21 45 0 14 4 22 10 19 6 -3 10 2 11 12 0 11 3 13 6 5 3 -7
-1 -19 -7 -28 -11 -12 -10 -13 5 -8 12 5 16 4 12 -3 -5 -7 0 -9 13 -6 11 3 20
12 20 19 0 8 6 14 13 15 9 0 9 2 0 5 -7 3 -9 12 -6 21 4 11 2 14 -8 11 -15 -5
-39 14 -39 31 0 14 3 14 31 -2z m-90 -27 c10 -6 19 -17 19 -26 0 -12 -4 -13
-21 -3 -21 11 -21 10 -6 -11 13 -19 14 -25 2 -36 -18 -19 -22 -18 -36 9 -11
19 -10 20 3 10 20 -17 31 -5 13 14 -8 8 -20 11 -26 7 -12 -7 -6 8 14 34 11 15
13 15 38 2z m80 -43 c-10 -9 -11 -8 -5 6 3 10 9 15 12 12 3 -3 0 -11 -7 -18z
m115 -9 c5 -7 3 -8 -7 -3 -11 7 -12 6 -3 -6 16 -20 17 -99 1 -99 -23 0 -40 18
-34 35 4 9 11 13 17 10 5 -3 10 1 10 9 0 9 -7 13 -20 11 -19 -4 -19 -2 -5 26
16 31 29 36 41 17z m-231 -48 c3 -5 1 -10 -4 -10 -6 0 -11 5 -11 10 0 6 2 10
4 10 3 0 8 -4 11 -10z m275 -46 c0 -3 -9 -17 -20 -31 -22 -28 -28 -15 -8 17
12 19 28 27 28 14z m-82 -40 c-4 -3 -12 5 -18 18 -12 22 -12 22 6 6 10 -10 15
-20 12 -24z m82 -28 c-14 -14 -22 -2 -14 18 5 14 9 15 15 4 4 -7 4 -17 -1 -22z
m-50 9 c0 -8 -4 -15 -10 -15 -5 0 -7 7 -4 15 4 8 8 15 10 15 2 0 4 -7 4 -15z"/>
<path d="M1038 3833 c7 -3 16 -2 19 1 4 3 -2 6 -13 5 -11 0 -14 -3 -6 -6z"/>
<path d="M1091 3818 c-1 -9 4 -20 9 -23 6 -3 10 -11 10 -17 0 -7 -6 -6 -15 2
-8 7 -15 8 -15 2 0 -13 27 -35 39 -30 6 2 2 20 -9 43 -10 22 -19 32 -19 23z"/>
<path d="M1146 3797 c3 -10 9 -15 12 -12 3 3 0 11 -7 18 -10 9 -11 8 -5 -6z"/>
<path d="M1202 3795 c0 -11 3 -28 6 -38 7 -16 10 -16 27 -3 19 14 20 14 1 13
-13 -1 -22 6 -27 23 -5 20 -7 21 -7 5z"/>
<path d="M860 3791 c0 -5 7 -12 16 -15 14 -5 15 -4 4 9 -14 17 -20 19 -20 6z"/>
<path d="M1008 3784 c13 -9 21 -22 19 -29 -6 -13 39 -13 51 1 4 4 1 5 -7 2 -8
-2 -25 6 -39 19 -14 13 -30 23 -36 23 -6 0 0 -7 12 -16z"/>
<path d="M1130 3776 c0 -2 7 -9 15 -16 9 -7 15 -8 15 -2 0 5 -7 12 -15 16 -8
3 -15 4 -15 2z"/>
<path d="M834 3752 c3 -6 2 -13 -4 -17 -20 -12 -10 -26 11 -15 11 7 24 8 27 4
4 -4 3 -8 -3 -11 -26 -9 -40 -25 -27 -30 6 -2 12 -15 12 -28 0 -13 6 -25 13
-28 6 -2 9 -8 5 -12 -10 -10 -40 14 -32 26 3 5 0 9 -5 9 -6 0 -11 9 -11 21 0
31 -23 18 -32 -19 -7 -26 -4 -39 18 -74 22 -35 25 -45 15 -61 -9 -13 3 -8 36
15 64 44 93 59 93 47 0 -5 5 -9 10 -9 6 0 10 7 10 15 0 8 5 15 10 15 10 0 12
-5 14 -32 1 -14 -32 -20 -40 -7 -9 14 -24 10 -24 -7 0 -8 4 -13 9 -10 24 15
56 -20 45 -49 -10 -25 -21 -17 -18 13 4 27 4 27 -5 2 -4 -14 -13 -24 -20 -22
-7 1 -10 -1 -8 -5 3 -5 -1 -14 -9 -21 -12 -11 -14 -10 -14 5 0 15 -2 15 -9 3
-6 -8 -7 -18 -5 -22 3 -4 -2 -8 -11 -8 -8 0 -18 -7 -21 -15 -4 -8 -10 -13 -14
-10 -5 3 -13 -3 -19 -12 -6 -10 -11 -13 -11 -8 -1 6 -5 1 -10 -10 -7 -16 -9
-11 -9 22 -1 54 -13 60 -46 26 -41 -44 -65 -98 -64 -145 l1 -43 9 42 c10 54
36 110 55 117 8 3 14 12 14 20 0 8 4 18 10 21 6 3 8 -10 5 -34 -5 -54 -13 -65
-33 -49 -13 11 -14 11 -8 0 4 -7 1 -23 -8 -37 -9 -13 -16 -37 -15 -52 l0 -28
17 25 c68 100 158 165 297 213 134 46 172 51 180 27 18 -56 117 -80 160 -40
21 20 21 20 81 0 47 -16 63 -27 78 -54 9 -18 34 -41 53 -50 32 -15 38 -16 51
-2 12 12 13 20 4 40 -9 20 -8 25 5 30 9 4 14 9 11 11 -13 14 -36 -9 -35 -33 2
-20 -3 -27 -15 -27 -10 0 -17 5 -15 10 1 6 7 9 12 7 6 -2 -6 13 -24 32 -19 20
-40 35 -45 34 -21 -3 -86 14 -86 23 0 5 6 9 13 9 8 0 7 4 -3 10 -8 5 -22 10
-30 10 -13 0 -13 -1 0 -11 12 -8 9 -9 -12 -5 -16 4 -28 3 -28 -1 0 -12 -52 -9
-77 5 -19 11 -24 33 -14 71 2 10 29 -34 27 -44 -2 -5 -1 -7 1 -2 3 4 8 5 11 3
4 -2 12 2 19 9 9 10 8 17 -3 34 -8 11 -20 21 -26 21 -6 0 -3 -9 7 -20 10 -11
16 -23 13 -25 -3 -3 -17 8 -32 25 -14 17 -26 26 -26 19 0 -7 -3 -10 -6 -6 -3
3 -2 12 2 19 10 16 5 69 -8 86 -12 14 -68 16 -68 2 0 -5 -11 -12 -25 -16 -14
-3 -23 -10 -20 -14 3 -5 -4 -6 -16 -3 -16 5 -20 1 -18 -18 3 -39 -3 -126 -8
-101 -3 13 -11 22 -21 21 -11 0 -12 -3 -4 -6 19 -8 14 -40 -8 -46 -17 -4 -18
-2 -9 15 10 18 9 20 -5 15 -9 -4 -16 -2 -16 2 0 5 6 12 13 14 10 4 10 6 0 6
-14 1 -18 57 -5 65 4 2 8 -7 7 -22 0 -17 6 -28 17 -30 21 -4 34 34 17 54 -9
11 -8 18 5 32 22 25 20 35 -3 22 -11 -5 -29 -10 -41 -10 -18 0 -17 3 12 31
l33 31 -33 -26 c-28 -22 -78 -39 -59 -20 4 4 -8 14 -26 23 -46 24 -53 2 -9
-28 20 -14 51 -25 69 -25 34 -1 46 -15 16 -18 -58 -5 -145 32 -162 69 -6 13
-17 23 -23 21 -7 -1 -24 4 -37 11 -13 7 -21 8 -17 3z m66 -38 c0 -8 -4 -12
-10 -9 -5 3 -10 10 -10 16 0 5 5 9 10 9 6 0 10 -7 10 -16z m12 -39 c12 -14 36
-28 55 -31 18 -3 36 -10 38 -15 3 -4 13 -5 21 -2 12 4 15 0 12 -18 -4 -31 -38
-39 -38 -10 0 25 3 25 -48 7 -41 -15 -41 -15 -67 15 -24 30 -32 59 -18 72 11
12 23 8 45 -18z m355 -69 c2 -46 8 -83 14 -87 6 -4 8 -12 4 -19 -5 -8 -11 -5
-22 9 -8 12 -23 21 -34 21 -11 0 -18 4 -15 9 3 4 -11 8 -32 7 -32 -1 -37 2
-40 23 -6 38 7 69 31 77 12 4 28 15 35 25 7 10 23 18 35 17 20 -2 22 -8 24
-82z m-426 4 c11 -6 17 -15 14 -21 -4 -5 1 -12 11 -16 16 -6 16 -7 -1 -19 -15
-11 -20 -10 -37 11 -11 14 -17 29 -13 34 3 5 1 12 -5 16 -5 3 -10 21 -9 38 l1
32 9 -32 c5 -18 18 -37 30 -43z m269 6 c0 -8 -4 -17 -9 -21 -12 -7 -24 12 -16
25 9 15 25 12 25 -4z m-212 -41 c-11 -11 -37 7 -31 22 5 13 8 13 21 -1 9 -9
13 -18 10 -21z m150 -51 c-5 -26 -34 -29 -41 -4 -3 12 1 23 11 29 21 12 35 -1
30 -25z m226 -53 c-3 -3 -15 6 -27 18 l-22 24 27 -19 c14 -10 24 -21 22 -23z
m56 9 c0 -5 -7 -10 -15 -10 -8 0 -15 5 -15 10 0 6 7 10 15 10 8 0 15 -4 15
-10z m227 -55 c6 -14 9 -25 6 -25 -7 0 -32 33 -33 43 0 16 16 5 27 -18z"/>
<path d="M891 3654 c0 -11 3 -14 6 -6 3 7 2 16 -1 19 -3 4 -6 -2 -5 -13z"/>
<path d="M1169 3621 c-13 -11 -21 -22 -17 -26 3 -4 16 3 28 15 28 28 20 36
-11 11z"/>
<path d="M1222 3619 c11 -17 10 -22 -7 -35 -11 -8 -25 -12 -32 -10 -7 3 -13 1
-13 -5 0 -6 -5 -7 -12 -3 -6 4 -8 3 -5 -3 16 -26 79 5 92 46 5 16 4 21 -4 17
-6 -4 -11 -2 -11 3 0 6 -5 11 -10 11 -6 0 -5 -8 2 -21z"/>
<path d="M1260 3741 c0 -5 5 -13 10 -16 6 -3 10 -2 10 4 0 5 -4 13 -10 16 -5
3 -10 2 -10 -4z"/>
<path d="M705 3654 c-30 -32 -55 -66 -55 -74 1 -9 5 -7 13 8 7 12 16 20 19 16
7 -7 34 37 30 49 -1 5 1 6 6 3 12 -7 58 42 49 51 -4 4 -32 -20 -62 -53z"/>
<path d="M766 3671 c-4 -7 -5 -15 -2 -18 9 -9 19 4 14 18 -4 11 -6 11 -12 0z"/>
<path d="M1770 3655 c0 -3 7 -17 16 -30 9 -13 12 -30 8 -36 -4 -8 -3 -9 4 -5
8 5 12 -1 12 -16 1 -13 7 -36 15 -53 l15 -30 -6 39 c-7 50 -64 166 -64 131z"/>
<path d="M711 3600 c-27 -49 -15 -53 17 -5 24 38 26 45 14 45 -5 0 -18 -18
-31 -40z"/>
<path d="M1340 3634 c0 -13 48 -59 55 -52 3 2 -9 17 -25 33 -17 16 -30 24 -30
19z"/>
<path d="M1753 3605 c0 -22 2 -30 4 -17 2 12 2 30 0 40 -3 9 -5 -1 -4 -23z"/>
<path d="M757 3613 c-4 -3 -7 -13 -7 -22 1 -13 3 -13 11 2 11 19 8 33 -4 20z"/>
<path d="M1505 3550 c-17 -19 -16 -19 19 -13 25 4 36 2 36 -7 0 -8 -8 -10 -21
-7 -12 3 -28 0 -36 -9 -8 -8 -10 -14 -5 -14 6 0 17 -2 24 -5 17 -7 50 21 67
55 11 22 11 23 -2 7 -12 -15 -17 -15 -29 -5 -21 20 -34 19 -53 -2z"/>
<path d="M1775 3480 c0 -43 3 -73 7 -67 4 7 8 37 8 67 0 30 -4 60 -8 67 -4 6
-7 -24 -7 -67z"/>
<path d="M930 3519 c0 -5 5 -7 10 -4 6 3 10 8 10 11 0 2 -4 4 -10 4 -5 0 -10
-5 -10 -11z"/>
<path d="M877 3494 c2 -7 11 -10 19 -7 19 7 18 10 -5 16 -13 3 -18 1 -14 -9z"/>
<path d="M1811 3454 c-1 -27 -10 -61 -21 -80 -12 -18 -17 -35 -12 -38 5 -3 15
6 22 19 7 13 17 22 22 19 10 -7 10 97 -1 114 -5 8 -8 -5 -10 -34z"/>
<path d="M1841 3464 c0 -11 3 -14 6 -6 3 7 2 16 -1 19 -3 4 -6 -2 -5 -13z"/>
<path d="M1194 3422 c6 -10 -22 -27 -38 -23 -4 1 -6 -11 -2 -26 5 -26 5 -27
-6 -5 -14 28 -33 28 -73 -2 -17 -13 -49 -31 -71 -40 -33 -13 -36 -13 -20 -1
11 8 26 15 35 15 8 0 11 3 8 7 -12 11 24 42 41 37 14 -5 14 -3 -1 6 -15 9 -24
6 -55 -20 -40 -34 -91 -91 -92 -101 0 -4 7 -10 15 -13 11 -4 15 -1 13 10 -4
21 104 64 169 67 29 1 53 6 53 11 0 4 7 6 15 2 8 -3 15 -1 15 4 0 6 -5 10 -12
10 -6 0 -8 3 -5 6 4 4 14 1 22 -6 12 -10 19 -10 27 -2 17 17 31 15 24 -4 -5
-14 -4 -15 9 -4 12 10 15 10 16 -1 0 -8 5 -4 11 9 9 19 8 26 -6 40 -17 16 -18
16 -7 -8 l12 -25 -20 24 c-12 13 -21 20 -21 17 0 -4 -14 1 -31 10 -17 8 -28
11 -25 6z m36 -54 c0 -6 -7 -5 -15 2 -8 7 -15 17 -15 22 0 6 7 5 15 -2 8 -7
15 -17 15 -22z m-106 -13 c-4 -8 -17 -15 -30 -15 -28 0 -32 16 -6 23 33 9 41
7 36 -8z"/>
<path d="M1736 3393 c-4 -13 -14 -30 -22 -38 -9 -8 -11 -15 -5 -15 15 0 44 47
39 62 -3 8 -8 4 -12 -9z"/>
<path d="M1382 3375 c0 -16 2 -22 5 -12 2 9 2 23 0 30 -3 6 -5 -1 -5 -18z"/>
<path d="M1760 3375 c-8 -9 -8 -15 -2 -15 12 0 26 19 19 26 -2 2 -10 -2 -17
-11z"/>
<path d="M1040 3365 c-8 -9 -8 -15 -2 -15 12 0 26 19 19 26 -2 2 -10 -2 -17
-11z"/>
<path d="M1304 3349 c-3 -6 -2 -15 3 -20 5 -5 9 -1 9 11 0 23 -2 24 -12 9z"/>
<path d="M1722 3325 c-17 -14 -34 -25 -40 -25 -10 0 -22 -23 -22 -41 0 -5 5
-9 10 -9 6 0 10 7 10 15 0 8 13 21 30 30 16 8 34 24 40 35 14 26 8 25 -28 -5z"/>
<path d="M779 3303 c-12 -14 -12 -16 1 -9 8 4 5 -1 -7 -11 -12 -10 -28 -33
-34 -50 -6 -18 -15 -33 -21 -33 -5 0 -7 4 -4 8 8 13 -38 34 -64 30 -40 -6 -61
-47 -63 -124 -2 -86 7 -136 35 -185 l21 -38 -51 -55 c-29 -30 -52 -59 -52 -64
0 -6 -15 -13 -33 -16 -34 -6 -45 -20 -63 -80 -10 -31 -23 -41 -67 -51 -16 -3
-44 -23 -63 -43 -19 -20 -34 -33 -34 -28 0 4 -15 -2 -33 -16 -24 -18 -47 -25
-92 -27 -33 -2 -71 -4 -85 -6 -14 -2 -35 -4 -47 -4 -13 -1 -23 -6 -23 -11 0
-15 232 -1 245 15 6 6 24 20 40 30 17 10 36 27 44 37 12 18 28 26 80 43 23 7
24 6 18 -29 -3 -22 -2 -34 4 -31 5 4 9 18 9 33 0 15 4 38 8 52 6 22 8 19 13
-20 6 -37 6 -34 4 17 -3 68 13 103 46 103 15 0 19 -7 19 -39 0 -42 23 -72 41
-54 8 8 5 14 -10 22 -36 20 -28 73 17 124 22 23 47 52 58 65 25 29 36 28 24
-4 -12 -32 -12 -34 1 -34 5 0 8 4 5 9 -3 4 0 16 7 25 11 16 15 16 42 2 16 -8
40 -32 53 -53 16 -26 21 -30 16 -13 -5 14 -8 35 -9 48 0 15 -5 20 -14 17 -25
-10 -100 44 -123 88 -27 53 -37 208 -16 247 16 30 86 44 74 15 -3 -9 -6 -19
-6 -22 0 -3 -8 1 -17 8 -9 8 -14 9 -10 3 4 -6 0 -24 -7 -40 -8 -16 -17 -47
-20 -69 -5 -33 -2 -29 15 21 19 58 22 62 55 66 33 4 34 3 34 -32 0 -20 9 -63
21 -96 20 -58 25 -81 34 -159 20 -179 29 -212 82 -283 13 -18 42 -41 64 -52
21 -11 39 -27 39 -35 0 -8 7 -15 15 -15 8 0 15 -5 15 -10 0 -6 11 -16 25 -22
13 -6 27 -19 30 -28 4 -11 21 -20 48 -25 130 -23 187 -29 197 -19 12 13 16 84
5 81 -6 -1 -10 -19 -9 -39 0 -30 -3 -38 -18 -38 -21 0 -21 1 -9 33 7 18 6 24
-4 24 -8 0 -16 -10 -19 -22 -5 -20 -26 -25 -65 -16 -3 1 5 10 17 21 24 23 27
35 12 45 -5 3 -10 -1 -10 -9 0 -24 -31 -49 -44 -36 -8 8 -6 14 7 21 9 6 17 18
17 28 0 9 8 26 18 37 17 18 17 21 4 34 -14 13 -15 12 -9 -2 8 -22 -15 -42 -31
-26 -9 9 -16 8 -29 -5 -12 -12 -14 -17 -4 -17 8 0 11 -7 7 -17 -4 -13 0 -11
14 6 25 30 26 16 1 -31 -11 -19 -17 -39 -14 -42 4 -3 -8 -1 -25 5 -33 11 -49
32 -47 59 0 8 7 14 15 12 13 -3 13 -1 1 10 -11 10 -14 10 -18 1 -3 -7 -9 -13
-14 -13 -11 0 -1 49 14 68 6 7 11 28 12 47 0 20 10 44 23 58 23 24 29 47 13
47 -5 0 -12 -8 -14 -17 -4 -14 -5 -13 -6 3 0 12 7 25 16 28 14 6 15 9 4 15 -9
6 -7 10 11 14 13 4 29 19 36 36 7 16 21 32 30 34 12 3 11 5 -5 6 -13 1 -27 -8
-33 -19 -6 -11 -14 -18 -18 -16 -22 13 -60 -53 -57 -99 1 -16 -4 -39 -12 -50
-7 -11 -13 -30 -13 -43 0 -12 -8 -32 -19 -43 -23 -25 -61 -33 -61 -13 0 9 -10
14 -27 14 -24 1 -26 2 -10 11 9 6 14 15 11 21 -5 7 -2 9 9 5 8 -3 21 1 28 9 6
8 14 12 17 9 3 -3 -3 -14 -13 -25 -17 -18 -17 -20 -1 -20 9 0 14 5 11 10 -3 6
-1 10 4 10 6 0 11 7 11 15 0 7 8 19 18 24 10 6 12 11 4 11 -7 0 -11 4 -8 9 3
5 8 26 11 47 3 28 2 35 -5 24 -9 -13 -11 -13 -20 0 -6 9 -10 10 -10 3 0 -6 4
-14 8 -17 12 -7 2 -83 -12 -83 -6 0 -24 -3 -39 -7 -30 -7 -32 -4 -17 24 7 13
7 21 0 25 -5 3 -10 -2 -10 -13 0 -18 -47 -49 -58 -37 -3 3 0 5 6 5 10 0 23 25
21 44 0 5 5 13 13 17 9 6 3 8 -17 8 -16 0 -24 -3 -17 -6 6 -2 12 -13 12 -24 0
-32 -25 -21 -27 13 -3 33 -23 55 -34 37 -3 -6 -6 2 -6 18 0 15 -3 40 -7 56 -7
23 -6 26 8 21 12 -4 15 -13 10 -28 -5 -16 -3 -18 5 -10 14 13 17 64 8 109 -18
85 -34 135 -41 128 -5 -4 -5 2 -2 15 5 14 3 22 -5 22 -7 0 -9 10 -5 30 3 17 0
42 -6 56 -9 20 -9 30 0 45 10 15 10 19 0 17 -23 -5 -27 -22 -22 -83 7 -79 -8
-62 -21 23 -11 65 -10 68 19 112 16 25 34 47 38 48 10 4 0 22 -11 22 -5 0 -15
-8 -22 -17z m21 -263 c0 -5 -4 -10 -10 -10 -5 0 -10 5 -10 10 0 6 5 10 10 10
6 0 10 -4 10 -10z m17 -46 c-3 -3 -12 -4 -19 -1 -8 3 -5 6 6 6 11 1 17 -2 13
-5z m3 -55 c0 -16 4 -29 9 -29 6 0 9 -8 9 -17 0 -10 2 -31 6 -48 5 -20 5 -26
-2 -16 -5 7 -15 10 -21 7 -8 -5 -11 6 -9 36 1 24 -1 58 -6 77 -6 24 -5 32 3
27 6 -4 11 -20 11 -37z m37 -261 c-3 -8 -6 -5 -6 6 -1 11 2 17 5 13 3 -3 4
-12 1 -19z m83 -68 c0 -5 -10 -10 -22 -10 -19 0 -20 2 -8 10 19 13 30 13 30 0z
m104 -87 c-4 -15 -11 -19 -25 -16 -11 3 -22 9 -25 14 -3 5 3 6 12 2 13 -5 15
-3 9 7 -5 8 -4 11 3 6 6 -3 14 -1 17 5 10 16 15 6 9 -18z m126 3 c0 -3 -4 -8
-10 -11 -5 -3 -10 -1 -10 4 0 6 5 11 10 11 6 0 10 -2 10 -4z"/>
<path d="M821 2864 c0 -11 3 -14 6 -6 3 7 2 16 -1 19 -3 4 -6 -2 -5 -13z"/>
<path d="M1495 3296 c0 -18 3 -22 12 -14 15 12 36 0 30 -16 -3 -8 12 -20 36
-31 70 -31 98 -76 78 -128 -6 -16 -14 -72 -17 -125 -6 -93 -41 -260 -65 -303
-6 -12 -8 -30 -6 -41 4 -14 2 -18 -9 -14 -12 4 -12 2 -4 -14 6 -11 8 -26 4
-33 -4 -6 -4 -9 1 -5 11 10 54 137 60 181 3 20 13 56 21 78 7 23 14 57 14 75
0 19 4 34 9 34 5 0 6 26 4 58 -3 31 1 80 7 109 12 47 11 55 -7 85 -11 19 -18
44 -17 55 2 12 -1 25 -6 28 -6 4 -7 -1 -3 -12 6 -16 5 -16 -11 -4 -9 8 -15 20
-12 28 3 8 1 11 -4 8 -6 -3 -20 1 -32 9 -17 12 -25 13 -37 3 -12 -9 -13 -9 -7
1 5 8 0 12 -16 12 -18 0 -23 -6 -23 -24z m98 -24 c23 -27 18 -52 -5 -28 -9 9
-21 16 -27 16 -6 0 -11 9 -11 20 0 25 19 22 43 -8z"/>
<path d="M1090 3280 c-9 -6 -10 -10 -3 -10 6 0 15 5 18 10 8 12 4 12 -15 0z"/>
<path d="M1215 3267 c10 -15 20 -25 23 -22 3 3 -5 16 -17 28 l-23 22 17 -28z"/>
<path d="M1025 3230 c-10 -11 -14 -20 -9 -20 5 0 -4 -9 -21 -20 -20 -13 -24
-20 -13 -20 9 0 18 5 20 11 2 5 10 11 18 12 22 4 40 17 40 29 0 7 -6 6 -15 -2
-18 -15 -20 1 -3 18 7 7 10 12 7 12 -3 0 -14 -9 -24 -20z"/>
<path d="M1125 3230 c3 -5 14 -10 23 -10 15 0 15 2 2 10 -20 13 -33 13 -25 0z"/>
<path d="M1210 3211 c0 -5 7 -12 16 -15 14 -5 15 -4 4 9 -14 17 -20 19 -20 6z"/>
<path d="M1495 3208 c-11 -6 -30 -20 -42 -31 l-23 -20 0 21 c0 12 -4 22 -10
22 -16 0 -12 -27 10 -62 11 -19 20 -51 20 -74 0 -23 7 -65 16 -92 16 -48 16
-53 0 -76 -23 -36 -59 -43 -87 -17 -24 22 -73 28 -84 11 -3 -5 -13 -10 -21
-10 -22 0 -19 61 4 67 9 2 30 23 46 46 l29 42 -30 -27 c-16 -16 -34 -28 -39
-28 -37 0 -57 -75 -28 -104 19 -20 30 -20 37 -1 9 21 69 11 86 -14 12 -19 16
-19 47 -6 24 10 36 11 40 3 10 -15 34 20 34 49 0 12 -9 46 -20 74 -12 28 -18
54 -15 57 3 3 19 -9 36 -26 17 -18 36 -32 42 -32 6 0 -7 15 -29 34 -43 37 -74
106 -48 106 8 0 14 -4 14 -8 0 -12 57 -31 67 -21 4 4 17 -5 28 -21 11 -17 23
-30 28 -30 14 0 8 107 -7 119 -12 10 -13 6 -5 -26 13 -56 11 -59 -15 -33 -18
16 -42 24 -82 29 l-57 6 34 33 c18 17 41 32 51 32 10 0 18 5 18 10 0 13 -20
12 -45 -2z"/>
<path d="M867 3194 c-4 -4 -7 -14 -7 -23 0 -11 3 -12 11 -4 6 6 10 16 7 23 -2
6 -7 8 -11 4z"/>
<path d="M1063 3194 c-12 -3 -27 -12 -34 -20 -11 -13 -6 -14 38 -9 28 3 62 1
75 -4 23 -9 25 -8 20 12 -5 21 -5 21 31 -2 44 -27 72 -23 31 4 -29 19 -114 29
-161 19z"/>
<path d="M1288 3177 c-3 -19 -2 -25 4 -19 6 6 8 18 6 28 -3 14 -5 12 -10 -9z"/>
<path d="M701 3153 c0 -5 4 -17 9 -28 8 -18 9 -17 9 8 1 15 -3 27 -9 27 -5 0
-10 -3 -9 -7z"/>
<path d="M1238 3123 c-17 -4 -26 -33 -10 -33 10 1 42 26 42 34 0 6 -5 6 -32
-1z"/>
<path d="M873 3112 c-7 -5 -11 -29 -10 -64 1 -31 5 -51 9 -45 4 6 10 -1 14
-16 3 -16 8 -26 11 -23 2 2 -2 24 -11 49 -14 43 -15 75 -1 97 7 12 4 12 -12 2z"/>
<path d="M680 3099 c0 -5 5 -7 10 -4 6 3 10 8 10 11 0 2 -4 4 -10 4 -5 0 -10
-5 -10 -11z"/>
<path d="M1135 3080 c4 -6 11 -8 16 -5 14 9 11 15 -7 15 -8 0 -12 -5 -9 -10z"/>
<path d="M1415 3050 c3 -5 8 -10 11 -10 2 0 4 5 4 10 0 6 -5 10 -11 10 -5 0
-7 -4 -4 -10z"/>
<path d="M736 3032 c-5 -15 -2 -27 8 -38 9 -8 16 -20 16 -25 0 -15 -49 -10
-76 7 -20 13 -28 14 -37 5 -9 -10 -9 -11 3 -7 18 7 64 -30 55 -44 -3 -5 -1
-10 4 -10 6 0 11 7 11 15 0 10 10 15 26 15 23 0 25 3 19 23 -3 12 -10 36 -14
52 -7 29 -8 29 -15 7z"/>
<path d="M850 2969 c0 -5 5 -7 10 -4 6 3 10 8 10 11 0 2 -4 4 -10 4 -5 0 -10
-5 -10 -11z"/>
<path d="M867 2933 c3 -7 6 -13 8 -13 2 0 5 6 8 13 3 8 -1 14 -8 14 -7 0 -11
-6 -8 -14z"/>
<path d="M746 2904 c-5 -14 -4 -15 9 -4 17 14 19 20 6 20 -5 0 -12 -7 -15 -16z"/>
<path d="M877 2890 c-3 -11 -1 -20 4 -20 5 0 9 9 9 20 0 11 -2 20 -4 20 -2 0
-6 -9 -9 -20z"/>
<path d="M1295 2840 c-3 -5 -12 -7 -20 -3 -10 3 -15 -1 -15 -12 0 -9 4 -14 9
-11 5 4 7 -4 3 -16 -3 -14 -7 -17 -10 -9 -4 11 -6 11 -14 0 -7 -10 -9 -8 -5 7
2 12 1 28 -4 35 -6 9 -9 0 -9 -26 l0 -40 58 -2 c31 -1 72 -3 90 -5 26 -3 32
-1 27 11 -11 28 -10 33 4 39 8 3 11 0 7 -7 -5 -7 -1 -9 9 -5 15 6 15 8 0 23
-15 15 -17 15 -26 -1 -6 -10 -16 -18 -24 -18 -10 0 -12 6 -8 18 6 15 5 15 -10
4 -8 -8 -13 -20 -10 -28 3 -8 0 -14 -6 -14 -14 0 -14 16 -1 40 6 11 6 21 1 24
-11 7 -28 -13 -32 -38 -2 -11 -11 -22 -19 -24 -12 -4 -13 -2 -4 9 11 14 25 59
19 59 -2 0 -6 -4 -10 -10z m90 -60 c3 -5 1 -10 -4 -10 -6 0 -11 5 -11 10 0 6
2 10 4 10 3 0 8 -4 11 -10z"/>
<path d="M1436 2829 c18 -23 24 -59 9 -59 -7 0 -16 -7 -19 -16 -3 -9 -2 -12 5
-9 5 4 17 1 25 -6 12 -10 17 -10 27 1 10 10 9 11 -2 5 -10 -6 -12 -4 -7 4 6 9
11 9 22 0 11 -9 11 -15 3 -25 -6 -7 -7 -19 -3 -25 5 -9 10 -7 15 7 6 14 7 11
5 -11 -1 -17 -5 -36 -9 -42 -4 -7 0 -10 10 -9 30 5 18 73 -25 135 -20 30 -44
57 -52 59 -12 4 -13 2 -4 -9z"/>
<path d="M880 2810 c5 -33 -1 -60 -11 -57 -6 1 -14 -4 -16 -11 -3 -8 1 -10 11
-6 11 4 16 0 17 -12 0 -17 1 -17 8 1 9 23 6 83 -4 93 -4 4 -6 0 -5 -8z"/>
<path d="M1210 2812 c0 -6 -8 -13 -18 -16 -20 -7 -26 -36 -8 -36 12 0 39 51
31 58 -3 3 -5 0 -5 -6z"/>
<path d="M656 2766 c3 -16 21 -52 42 -80 57 -76 58 -79 32 -71 -15 5 -20 4
-16 -4 4 -6 15 -11 25 -11 10 0 24 -15 34 -35 9 -19 22 -35 29 -35 7 0 0 -11
-17 -24 -16 -13 -27 -28 -22 -32 4 -4 7 -2 7 4 0 7 6 12 14 12 8 0 17 7 20 15
5 14 9 14 37 0 25 -13 28 -19 18 -31 -7 -9 -8 -14 -1 -14 6 0 12 5 14 11 5 15
131 -47 140 -68 6 -16 7 -16 7 -1 1 11 7 15 21 11 11 -3 20 -1 20 5 0 5 -17
12 -37 16 -21 3 -78 28 -128 54 -85 46 -93 53 -136 123 -34 56 -45 83 -44 109
2 23 1 25 -2 8 -9 -55 -36 -21 -30 36 2 17 2 23 0 14 -2 -10 -8 -18 -13 -18
-5 0 -11 8 -13 18 -2 9 -3 4 -1 -12z"/>
<path d="M921 2774 c0 -11 3 -14 6 -6 3 7 2 16 -1 19 -3 4 -6 -2 -5 -13z"/>
<path d="M960 2775 c0 -8 4 -15 10 -15 5 0 7 7 4 15 -4 8 -8 15 -10 15 -2 0
-4 -7 -4 -15z"/>
<path d="M645 2697 c2 -53 1 -59 -21 -67 -24 -10 -33 -30 -13 -30 19 0 79 52
79 68 0 13 -3 12 -15 -4 -14 -18 -14 -17 -15 16 -1 19 -5 44 -9 55 -5 13 -7
-2 -6 -38z"/>
<path d="M1180 2728 c13 -10 30 -17 39 -16 9 2 22 -3 29 -12 9 -10 11 -11 6
-1 -6 11 -1 13 22 8 16 -3 38 -9 48 -13 13 -5 17 -4 12 4 -4 7 6 12 26 15 28
3 26 4 -12 6 -25 1 -78 8 -119 15 -73 13 -74 13 -51 -6z"/>
<path d="M955 2714 c-9 -15 -12 -24 -7 -20 6 3 15 -6 21 -21 l11 -28 -5 28
c-3 17 -2 26 4 23 5 -3 11 1 15 9 3 8 0 14 -7 12 -7 -1 -11 4 -9 11 3 19 -4
14 -23 -14z"/>
<path d="M1425 2710 c-17 -7 -17 -9 -2 -9 19 -1 24 -31 5 -31 -9 0 -8 -3 2 -9
20 -14 30 -4 30 30 0 31 -3 33 -35 19z"/>
<path d="M1001 2693 c-1 -6 -4 -20 -7 -30 -5 -17 -5 -17 6 0 6 10 9 23 6 30
-3 9 -5 9 -5 0z"/>
<path d="M575 2641 c-7 -12 12 -24 25 -16 11 7 4 25 -10 25 -5 0 -11 -4 -15
-9z"/>
<path d="M1138 2630 c-26 -24 -22 -35 4 -10 12 11 20 22 17 24 -2 2 -12 -4
-21 -14z"/>
<path d="M1265 2632 c-27 -14 -34 -25 -10 -16 16 6 17 5 19 -38 1 -15 -1 -25
-5 -23 -3 3 -12 -7 -19 -21 -10 -18 -16 -21 -23 -12 -5 8 -6 4 -2 -12 4 -14 8
-35 9 -47 1 -23 15 -32 17 -13 1 6 2 13 3 18 1 4 6 22 10 40 4 18 12 29 17 26
6 -4 6 -11 -1 -19 -7 -8 -10 -22 -7 -32 4 -14 5 -13 6 5 1 15 5 21 13 16 7 -4
8 -3 4 4 -4 7 -3 12 3 12 5 0 12 -6 14 -12 4 -10 6 -10 6 0 1 6 6 12 12 12 6
0 8 -7 5 -16 -3 -8 -2 -12 4 -9 5 3 14 -4 20 -15 7 -13 7 -20 0 -20 -5 0 -10
5 -10 12 0 6 -3 8 -6 5 -4 -4 -2 -12 3 -19 6 -7 10 -21 10 -32 0 -18 -1 -18
-14 0 -12 17 -13 17 -13 -4 0 -18 6 -22 35 -22 19 0 35 -4 35 -10 0 -5 -6 -10
-14 -10 -8 0 -18 -5 -22 -12 -5 -7 -2 -9 8 -5 13 4 16 -1 15 -29 -1 -19 -5
-34 -9 -34 -4 0 -8 -7 -8 -15 0 -8 -15 -24 -32 -35 -18 -11 -28 -20 -23 -20 6
0 3 -5 -5 -10 -10 -6 -15 -26 -15 -59 0 -27 -3 -53 -7 -56 -7 -7 -88 -15 -88
-9 0 1 7 10 16 18 9 10 11 16 4 16 -7 0 -9 8 -5 20 5 15 2 20 -12 21 -76 3
-129 15 -254 58 -79 27 -153 51 -164 54 -11 3 4 3 34 0 30 -3 69 -12 88 -20
50 -20 126 -33 233 -39 52 -2 105 -7 117 -9 16 -4 21 -1 17 8 -3 10 -33 14
-107 15 -116 3 -141 8 -133 28 3 8 1 14 -4 14 -6 0 -10 -7 -10 -15 0 -19 -26
-19 -81 1 -76 27 -188 52 -209 47 -12 -3 -20 0 -20 6 0 7 5 9 12 5 7 -4 8 -3
4 4 -4 7 -13 12 -19 12 -7 0 -30 11 -52 25 l-40 26 34 -28 c19 -15 48 -43 65
-61 51 -56 270 -163 297 -146 7 4 9 3 5 -4 -3 -6 -1 -14 5 -18 47 -28 63 -183
32 -299 -16 -60 -16 -68 0 -137 22 -94 21 -239 -2 -393 -10 -66 -22 -128 -26
-137 -4 -10 -3 -18 2 -18 6 0 16 19 23 43 13 43 14 49 24 152 3 33 10 61 16
63 5 2 10 8 10 13 0 6 -3 8 -7 6 -5 -3 -8 47 -8 112 0 73 -5 128 -14 148 -11
28 -11 34 3 48 20 20 20 26 2 19 -22 -9 -25 8 -9 51 8 22 14 52 14 68 0 38 14
34 18 -5 4 -41 9 -73 11 -73 1 0 3 -7 5 -15 2 -8 8 -28 13 -45 13 -44 14 -153
2 -210 -12 -57 -18 -80 -20 -80 -1 0 -3 -9 -5 -20 -2 -11 -9 -49 -15 -85 -13
-75 -14 -84 -10 -125 1 -16 10 17 20 75 10 58 28 141 39 185 26 100 26 176 1
285 -24 103 -25 170 -5 273 8 43 14 81 14 85 -5 30 3 42 27 42 25 0 25 -2 19
-42 -4 -24 -13 -65 -21 -92 -19 -68 -17 -155 6 -256 26 -114 25 -192 -5 -309
-13 -53 -27 -124 -31 -157 -9 -78 -22 -101 -107 -190 -40 -41 -70 -77 -67 -79
4 -2 5 -18 2 -35 -2 -16 0 -30 5 -30 6 0 8 12 5 26 -4 22 6 35 63 87 37 34
108 111 158 171 82 97 100 113 162 142 38 19 74 34 80 34 6 0 61 20 123 45
102 41 120 45 195 45 109 0 151 3 158 14 4 4 16 3 28 -3 14 -8 21 -8 21 -1 0
5 5 10 11 10 5 0 7 -5 4 -11 -12 -19 5 -58 31 -72 l26 -14 -39 -16 c-21 -8
-77 -18 -124 -22 -104 -8 -157 -25 -281 -86 -64 -32 -110 -49 -135 -49 -39 0
-72 -14 -61 -25 3 -4 15 -2 25 3 11 7 25 7 35 1 12 -7 42 4 113 41 126 64 195
89 258 94 29 3 81 8 117 11 l66 7 18 -33 c10 -19 16 -45 15 -59 -3 -21 -15
-28 -74 -47 -38 -13 -81 -28 -95 -35 -14 -6 -34 -10 -45 -9 -17 3 -17 1 5 -17
14 -11 22 -24 17 -28 -4 -4 -13 0 -20 10 -16 22 -43 23 -90 3 -25 -11 -36 -21
-31 -28 4 -8 3 -9 -5 -5 -16 10 -111 -23 -111 -38 0 -7 -15 -18 -32 -23 -18
-5 -32 -15 -31 -21 3 -11 -10 -16 -29 -13 -5 0 -8 -4 -8 -9 0 -6 6 -10 13 -10
21 0 40 17 33 29 -4 6 0 11 11 11 10 0 27 6 38 14 19 13 153 58 207 70 15 3
39 1 53 -4 23 -9 71 -15 146 -19 17 -1 39 -41 39 -71 0 -30 -39 -60 -79 -60
-20 -1 -58 -7 -86 -15 -44 -12 -46 -14 -18 -14 17 -1 35 -5 38 -11 7 -12 -51
-12 -80 -1 -27 11 -45 3 -45 -19 0 -10 -7 -23 -15 -30 -13 -11 -15 -8 -15 13
0 14 3 27 8 30 9 5 -5 1 -80 -21 -42 -12 -58 -22 -60 -37 -2 -11 -14 -22 -28
-26 -47 -13 -5 -9 80 8 47 9 102 16 123 16 31 -1 36 1 26 13 -6 8 -16 11 -23
7 -6 -4 -5 1 3 10 14 18 26 23 17 8 -8 -12 19 -21 65 -21 22 0 39 -5 39 -11 0
-7 -9 -9 -21 -6 -21 6 -21 5 -3 -12 11 -10 21 -15 24 -11 3 4 32 7 65 7 33 0
72 3 88 6 15 4 27 4 27 -1 0 -11 -86 -35 -99 -28 -5 3 -11 1 -13 -6 -3 -7 -9
-8 -19 -3 -8 5 -22 8 -32 7 -10 -2 -25 2 -33 8 -11 10 -14 9 -14 -9 0 -11 -4
-21 -10 -21 -5 0 -10 -6 -10 -14 0 -8 -5 -18 -10 -21 -7 -4 -9 2 -5 18 4 14 2
28 -5 32 -7 4 -11 1 -9 -6 5 -41 -3 -59 -33 -75 -18 -10 -37 -22 -43 -29 -5
-7 -38 -20 -73 -29 -35 -10 -127 -49 -205 -88 -103 -51 -161 -74 -211 -82 -46
-8 -73 -18 -82 -31 -17 -23 -18 -12 -3 17 10 18 9 20 -6 14 -11 -4 -26 0 -38
11 -19 18 -20 17 -8 -4 6 -13 18 -23 25 -23 9 0 13 -14 11 -48 -3 -59 14 -103
48 -121 23 -12 36 -12 95 0 91 20 126 11 177 -44 23 -24 42 -50 43 -58 14
-139 14 -155 -6 -206 -24 -63 -14 -71 14 -10 13 28 19 64 19 109 0 36 3 69 6
73 9 8 -1 45 -12 45 -4 0 -11 23 -15 51 -6 42 -14 58 -48 90 -22 22 -42 35
-44 29 -2 -6 12 -25 32 -43 27 -24 38 -43 43 -72 l6 -40 -25 35 c-13 19 -34
40 -46 46 -12 6 -20 13 -17 16 9 9 -60 6 -115 -4 -85 -17 -91 -17 -116 11 -28
30 -30 41 -8 41 8 0 13 4 9 10 -3 5 -13 6 -22 3 -12 -5 -14 -3 -8 8 5 7 10 22
10 32 3 29 21 40 72 41 35 1 71 13 131 44 81 41 93 41 71 0 -15 -28 -24 -120
-9 -96 5 9 45 41 88 71 42 31 91 67 107 82 27 24 28 25 5 14 -14 -6 -33 -19
-42 -28 -32 -30 -47 -41 -58 -41 -5 0 -10 -5 -10 -12 0 -6 -3 -8 -7 -5 -3 4
-17 -2 -29 -14 -29 -27 -39 -10 -23 36 11 29 25 41 88 71 42 20 94 39 116 41
l41 5 2 -38 c4 -87 15 -135 35 -161 l21 -28 -32 30 c-18 16 -30 35 -28 42 3 7
2 13 -3 13 -4 0 -13 21 -19 48 l-11 47 5 -49 c2 -27 12 -63 22 -80 37 -63 161
-114 292 -120 25 -1 51 -5 58 -9 7 -5 12 -3 12 7 0 22 27 20 39 -2 8 -14 12
-15 22 -5 17 17 39 16 59 -2 21 -19 65 -7 116 32 55 41 163 172 172 207 5 18
20 38 39 48 l30 18 28 -42 c48 -72 176 -331 171 -345 -3 -7 -1 -13 5 -13 13 0
2 58 -17 85 -8 11 -14 27 -14 37 0 10 -4 18 -8 18 -9 0 -37 70 -34 83 1 5 -2
6 -7 3 -11 -7 -23 22 -14 36 3 6 1 8 -4 5 -13 -8 -26 20 -16 35 3 7 1 8 -5 4
-7 -4 -14 3 -18 18 -3 13 -12 27 -20 30 -8 3 -11 12 -8 21 4 9 2 15 -3 13 -14
-4 -66 60 -60 74 2 7 0 20 -4 30 -6 11 -4 18 8 22 14 6 14 8 -2 26 -10 11 -14
20 -9 20 5 1 -3 7 -18 15 l-26 15 19 37 c30 58 25 88 -21 133 -23 22 -47 40
-55 40 -20 0 -19 6 6 41 49 70 5 164 -80 171 -23 2 -36 11 -50 34 -13 22 -33
36 -62 46 l-44 15 -12 121 c-10 103 -17 130 -45 184 -18 35 -39 68 -48 75 -20
16 -276 11 -308 -6 -24 -13 -62 -6 -62 11 0 20 -44 103 -72 136 -16 18 -26 37
-23 43 4 5 -1 12 -9 15 -9 3 -16 12 -16 19 0 8 -6 20 -13 27 -41 41 -46 95 -7
83 23 -7 50 10 50 32 0 20 -51 62 -76 63 -20 0 -84 49 -84 64 0 4 16 28 37 52
27 34 37 56 41 93 4 43 1 51 -20 67 -24 17 -24 20 -11 51 20 49 8 40 -17 -12
-12 -25 -28 -45 -35 -45 -7 0 -16 -7 -19 -16 -4 -9 -9 -14 -13 -11 -3 4 -15 0
-27 -8 -28 -20 -36 -19 -36 5 0 22 10 26 27 9 7 -7 12 -6 16 5 4 9 1 13 -6 10
-8 -3 -13 10 -14 38 -1 23 2 36 7 29 4 -8 10 -9 12 -5 3 5 3 3 2 -4 -4 -14 17
-52 28 -52 5 0 8 7 8 16 0 8 -4 12 -10 9 -5 -3 -11 0 -11 7 -1 7 -2 18 -4 23
-1 6 -3 20 -3 32 -2 24 -67 70 -92 65 -10 -2 -9 1 4 11 18 13 18 14 -13 13
-17 0 -43 -7 -56 -14z m22 -24 c-3 -8 -6 -5 -6 6 -1 11 2 17 5 13 3 -3 4 -12
1 -19z m51 -34 c1 -10 -3 -28 -11 -38 -13 -18 -14 -16 -9 12 3 26 1 32 -14 32
-16 0 -17 2 -4 10 20 13 34 7 38 -16z m70 -15 c2 -10 1 -11 -5 -2 -5 7 -13 9
-18 5 -14 -10 -18 -59 -6 -67 6 -3 11 -10 11 -16 0 -18 -15 -8 -32 22 -10 17
-13 27 -5 23 9 -5 9 -4 1 5 -7 7 -9 21 -7 32 6 23 54 21 61 -2z m-106 -21 c-9
-9 -12 -7 -12 12 0 19 3 21 12 12 9 -9 9 -15 0 -24z m228 -109 c0 -38 -34
-105 -60 -119 -21 -11 -29 -70 -10 -70 5 0 12 -11 16 -25 3 -14 10 -23 14 -20
4 3 20 -5 36 -17 15 -13 25 -18 21 -11 -11 18 30 3 49 -18 22 -25 11 -35 -22
-20 -14 6 -31 8 -37 5 -7 -4 -8 -3 -4 1 7 9 -92 60 -145 76 -21 6 -28 4 -28
-7 0 -8 -6 -14 -12 -14 -8 0 -9 -3 -3 -8 6 -4 11 -18 11 -32 1 -14 4 -41 7
-60 4 -19 10 -55 13 -80 4 -25 11 -51 17 -57 6 -9 6 -17 -1 -26 -8 -10 -6 -13
8 -14 22 -2 79 -61 80 -83 0 -13 1 -13 10 0 7 12 10 11 15 -5 4 -11 11 -28 16
-38 12 -23 2 -38 -11 -17 -8 13 -10 13 -10 -1 0 -8 5 -20 11 -26 7 -7 6 -15
-5 -26 -9 -9 -16 -20 -16 -26 0 -6 -7 -11 -15 -11 -12 0 -13 5 -7 18 5 9 12
40 15 67 2 28 3 42 0 33 -2 -10 -9 -18 -15 -18 -5 0 -7 7 -4 16 4 11 -6 27
-28 48 -18 17 -36 38 -39 46 -3 8 -6 -4 -6 -27 -1 -37 -3 -41 -23 -37 -21 4
-22 4 -3 -5 19 -9 19 -10 -3 -10 -22 -1 -22 1 -15 52 13 88 7 186 -13 208 -10
11 -21 43 -24 73 -6 51 -5 54 27 74 44 29 66 76 67 142 l1 55 50 26 c59 30 75
28 75 -12z m-565 -219 c33 -12 83 -27 110 -34 45 -10 50 -14 52 -41 3 -44 -6
-95 -18 -95 -6 0 -7 4 -4 10 3 6 -1 7 -9 4 -9 -3 -16 -2 -16 2 0 5 -3 19 -6
31 -4 15 -1 22 13 26 16 4 16 5 -3 6 -11 0 -29 8 -40 16 -18 15 -17 15 11 11
17 -2 38 -7 48 -11 9 -4 17 -3 17 3 0 10 -110 35 -118 27 -3 -3 -10 -1 -16 4
-6 5 -29 14 -51 21 -43 14 -155 67 -155 74 0 6 108 -26 185 -54z m445 -56 c0
-15 43 -29 64 -21 22 9 48 -16 76 -70 54 -106 80 -152 91 -158 15 -10 69 -125
69 -147 0 -14 -8 -18 -35 -18 -31 0 -35 -3 -35 -27 -1 -16 -7 -39 -15 -53 -8
-14 -14 -50 -15 -80 l0 -56 -97 -42 c-54 -23 -115 -47 -136 -53 -58 -16 -150
-74 -169 -106 -9 -16 -27 -37 -39 -48 l-22 -20 7 25 c4 14 10 43 12 64 3 22 9
47 14 56 5 9 11 35 15 59 3 24 11 55 17 70 13 33 13 151 0 193 -18 56 -36 181
-33 218 2 19 8 41 14 49 9 11 9 13 0 8 -8 -5 -8 -1 0 18 7 14 18 25 25 25 6 0
12 5 12 10 0 6 -5 10 -11 10 -6 0 -9 6 -6 13 5 13 39 10 48 -5 4 -5 12 -3 21
6 14 14 17 13 31 -2 21 -23 37 -127 26 -166 -22 -75 -5 -119 39 -100 9 4 20 6
25 6 4 -1 7 5 7 15 0 14 2 14 20 -2 11 -10 19 -23 17 -29 -2 -6 2 -17 10 -24
8 -8 11 -23 7 -38 -12 -48 -10 -59 14 -62 17 -3 25 2 29 18 3 12 11 19 17 17
30 -12 22 117 -9 139 -8 6 -11 15 -7 19 4 5 2 5 -5 1 -7 -3 -29 10 -51 31 -31
31 -42 51 -54 103 -8 36 -16 81 -17 100 -1 19 -6 37 -11 38 -6 2 -10 8 -10 13
0 6 5 7 10 4 7 -4 8 3 4 22 l-7 28 22 -19 c11 -11 21 -25 21 -32z m70 -7 c0
-17 -43 -2 -58 21 l-15 23 36 -17 c21 -10 37 -22 37 -27z m-367 -138 c-7 -27
-23 -24 -23 6 0 17 4 23 14 19 8 -3 12 -13 9 -25z m-17 -85 c-4 -9 -9 -15 -11
-12 -3 3 -3 13 1 22 4 9 9 15 11 12 3 -3 3 -13 -1 -22z m720 -176 c5 -7 3 -8
-6 -3 -8 5 -11 4 -6 -3 7 -12 36 -5 36 9 0 5 8 9 18 9 14 0 15 -2 2 -10 -12
-8 -11 -10 8 -10 12 0 22 5 22 10 0 6 40 10 100 10 83 0 100 -3 100 -15 0 -9
12 -34 27 -56 22 -33 28 -59 39 -162 7 -67 13 -132 14 -145 0 -19 4 -21 25
-16 33 8 88 -14 81 -33 -3 -8 -1 -11 4 -8 6 4 10 -8 10 -29 0 -34 1 -35 24
-25 84 39 152 -67 91 -139 -14 -17 -25 -34 -25 -39 0 -5 -13 -24 -29 -42 -16
-18 -32 -49 -36 -69 -8 -42 -32 -92 -44 -92 -5 0 -11 12 -14 27 -4 21 2 36 24
61 31 34 34 42 21 42 -5 0 -15 -11 -22 -25 -7 -13 -22 -27 -32 -31 -21 -6 -58
21 -54 39 2 7 1 9 -1 4 -3 -4 -9 -5 -14 -1 -5 3 0 -12 11 -33 21 -41 31 -143
17 -178 -5 -11 -2 -9 6 5 18 31 23 66 13 102 -13 46 0 55 18 13 16 -37 16 -42
0 -80 -9 -22 -21 -51 -26 -65 -17 -46 16 0 37 50 10 25 27 54 37 65 10 12 27
47 38 80 25 72 45 95 82 95 33 0 78 -39 78 -68 0 -43 -14 -83 -37 -108 -13
-14 -34 -47 -47 -73 -48 -95 -86 -157 -121 -194 -19 -21 -35 -48 -35 -60 -1
-31 -18 -51 -67 -75 -63 -33 -168 -46 -255 -32 -140 21 -160 45 -171 196 l-6
79 52 25 c36 18 57 35 67 57 l15 33 85 1 c47 0 108 6 135 13 l50 11 -4 115
c-2 63 -5 117 -6 118 -2 2 -22 1 -44 -3 -44 -7 -56 -25 -18 -25 22 -1 22 -1
-3 -15 -29 -17 -13 -20 25 -5 20 8 26 7 23 -2 -3 -7 -21 -14 -41 -16 l-37 -3
0 50 c0 39 4 51 15 51 18 0 20 -16 3 -23 -8 -3 -6 -6 5 -6 9 -1 17 4 17 9 0 6
18 10 40 10 l40 0 -2 78 -2 77 -4 -70 -5 -70 -13 40 -14 40 3 -37 c2 -27 -1
-38 -11 -38 -7 0 -11 3 -9 8 3 4 -1 13 -9 20 -8 7 -14 9 -14 3 0 -5 -24 -11
-53 -13 l-52 -3 -2 43 c-1 37 2 44 23 53 47 17 54 12 54 -38 0 -56 17 -47 22
11 6 59 28 58 30 -1 l1 -48 6 55 7 55 11 -35 11 -35 1 33 c1 17 6 32 12 32 5
0 7 5 4 10 -3 6 -19 10 -34 10 -24 0 -28 4 -28 30 0 39 -27 68 -71 76 -35 7
-35 7 -12 16 36 14 102 19 95 7 -4 -5 -1 -9 4 -9 6 0 11 -12 12 -27 1 -16 5
-39 10 -53 6 -18 7 -10 4 30 -3 41 -10 60 -27 75 -14 12 -22 29 -20 42 8 58
-77 81 -223 60 -49 -7 -115 -12 -145 -12 l-55 0 -3 40 c-2 25 5 58 17 85 11
24 17 48 14 53 -8 14 18 27 54 27 17 0 35 5 38 10 8 13 12 13 21 -2z m-141
-28 c3 -5 1 -10 -4 -10 -6 0 -11 5 -11 10 0 6 2 10 4 10 3 0 8 -4 11 -10z m-5
-27 c0 -16 -25 -73 -32 -73 -11 0 -10 8 4 47 11 29 28 45 28 26z m-30 -103
c-8 -5 -9 -10 -2 -14 6 -4 9 -13 6 -21 -9 -22 -21 -10 -18 17 1 13 3 27 3 31
1 5 6 5 12 1 8 -5 8 -9 -1 -14z m434 -79 c11 -13 15 -27 11 -40 -4 -14 -2 -21
6 -21 7 0 10 -2 7 -5 -7 -7 -81 25 -90 39 -4 6 -8 19 -8 29 0 24 52 23 74 -2z
m11 -176 l6 -30 -15 25 c-17 28 -22 60 -7 45 5 -6 12 -23 16 -40z m5 -44 c0
-5 -7 -11 -15 -15 -9 -3 -15 0 -15 9 0 8 7 15 15 15 8 0 15 -4 15 -9z m-140
-60 c0 -5 3 -23 6 -40 5 -23 3 -31 -8 -31 -9 0 -15 13 -16 40 -2 23 2 40 8 40
5 0 10 -4 10 -9z m-58 -36 c-7 -37 -22 -41 -22 -6 0 20 5 31 14 31 9 0 12 -8
8 -25z m-82 -16 c0 -5 -9 -9 -20 -9 -11 0 -20 5 -20 11 0 5 5 7 10 4 6 -3 10
-1 10 5 0 6 5 8 10 5 6 -3 10 -10 10 -16z m-50 -7 c0 -5 -7 -9 -15 -9 -8 0
-12 4 -9 9 3 4 9 8 15 8 5 0 9 -4 9 -8z m340 -29 c0 -5 -16 -8 -35 -8 -19 0
-35 3 -35 8 0 4 16 7 35 7 19 0 35 -3 35 -7z m15 -132 c-14 -12 -75 -22 -75
-11 0 10 23 17 60 19 14 1 20 -3 15 -8z m-85 -11 c0 -5 -12 -10 -27 -9 -25 0
-26 1 -8 9 27 12 35 12 35 0z m-74 -15 c4 -10 14 -13 30 -9 15 4 24 2 24 -5 0
-17 -97 -14 -103 3 -5 13 6 20 36 25 4 0 10 -6 13 -14z m174 5 c0 -5 -17 -12
-37 -15 -21 -4 -46 -9 -55 -12 -10 -2 -18 0 -18 5 0 7 42 19 103 31 4 0 7 -3
7 -9z m-30 -40 c0 -5 -11 -10 -25 -10 -14 0 -29 -8 -35 -20 -11 -20 -50 -28
-50 -10 0 6 9 10 20 10 13 0 17 5 14 14 -6 15 12 23 54 25 12 0 22 -3 22 -9z
m-380 -34 c-13 -13 -80 -17 -80 -5 0 6 3 8 8 6 4 -2 21 3 37 13 21 12 32 14
37 6 4 -6 3 -15 -2 -20z m190 24 c0 -12 -34 -12 -70 0 -20 7 -16 8 23 9 26 1
47 -3 47 -9z m100 0 c0 -5 -20 -10 -45 -10 -25 0 -45 5 -45 10 0 6 20 10 45
10 25 0 45 -4 45 -10z m120 0 c0 -5 -4 -10 -10 -10 -5 0 -10 5 -10 10 0 6 5
10 10 10 6 0 10 -4 10 -10z m-40 -21 c0 -6 9 -8 20 -4 14 4 20 2 20 -9 0 -23
-21 -31 -32 -12 -5 9 -18 16 -28 16 -11 0 -20 5 -20 10 0 6 9 10 20 10 11 0
20 -5 20 -11z m-110 -9 c0 -5 -13 -10 -30 -10 -16 0 -30 5 -30 10 0 6 14 10
30 10 17 0 30 -4 30 -10z m496 -48 c69 -46 27 -214 -86 -342 -101 -114 -175
-148 -204 -95 -6 11 -15 23 -19 26 -10 7 52 34 73 32 8 -1 10 0 4 3 -15 6 22
79 79 154 48 63 57 71 71 63 5 -3 6 -1 2 6 -4 6 -12 9 -17 6 -12 -8 -12 8 0
21 6 5 24 37 41 72 31 63 36 68 56 54z m74 -163 c0 -5 -7 -9 -15 -9 -15 0 -20
12 -9 23 8 8 24 -1 24 -14z m-550 -271 c74 1 99 4 131 17 11 4 18 0 21 -12 5
-17 -3 -19 -86 -21 -90 -2 -181 11 -192 29 -3 5 7 4 23 -2 15 -6 62 -11 103
-11z"/>
<path d="M1397 2262 c-3 -4 14 -20 36 -36 l42 -29 -34 36 c-38 41 -38 40 -44
29z"/>
<path d="M1325 2121 c-3 -5 -1 -12 5 -16 5 -3 10 1 10 9 0 18 -6 21 -15 7z"/>
<path d="M1410 1893 c0 -5 11 -20 25 -33 14 -13 25 -19 25 -13 0 5 -11 20 -25
33 -14 13 -25 19 -25 13z"/>
<path d="M1541 2004 c13 -17 29 -40 36 -50 7 -11 12 -13 12 -6 1 7 -15 29 -35
50 -30 30 -32 31 -13 6z"/>
<path d="M1603 1843 c0 -45 3 -60 8 -43 10 34 10 82 1 98 -5 7 -8 -18 -9 -55z"/>
<path d="M1645 1862 c4 -7 10 -34 15 -60 l8 -47 1 41 c1 23 -6 48 -15 60 -8
10 -12 13 -9 6z"/>
<path d="M1442 1740 c0 -14 2 -19 5 -12 2 6 2 18 0 25 -3 6 -5 1 -5 -13z"/>
<path d="M1585 1688 c-15 -40 -33 -80 -40 -88 -7 -8 -15 -31 -19 -50 l-6 -34
35 34 c19 19 35 39 35 44 0 6 -9 0 -20 -14 -20 -27 -42 -20 -22 8 31 43 82
172 69 172 -2 0 -16 -33 -32 -72z"/>
<path d="M1382 1615 c-7 -43 -10 -80 -8 -82 6 -6 29 134 24 148 -2 7 -9 -23
-16 -66z"/>
<path d="M1362 1620 c0 -14 2 -19 5 -12 2 6 2 18 0 25 -3 6 -5 1 -5 -13z"/>
<path d="M1351 1564 c0 -11 3 -14 6 -6 3 7 2 16 -1 19 -3 4 -6 -2 -5 -13z"/>
<path d="M1340 1530 c-1 -3 -3 -18 -6 -35 -3 -28 -3 -29 7 -6 5 13 8 29 5 35
-2 6 -5 9 -6 6z"/>
<path d="M1361 1504 c0 -11 3 -14 6 -6 3 7 2 16 -1 19 -3 4 -6 -2 -5 -13z"/>
<path d="M1321 1444 c0 -11 3 -14 6 -6 3 7 2 16 -1 19 -3 4 -6 -2 -5 -13z"/>
<path d="M1978 1738 c23 -8 39 -8 55 0 19 9 13 11 -33 10 -53 0 -54 -1 -22
-10z"/>
<path d="M1783 1713 c15 -2 37 -2 50 0 12 2 0 4 -28 4 -27 0 -38 -2 -22 -4z"/>
<path d="M2188 1353 c-19 -5 -25 -48 -8 -58 6 -4 10 5 10 20 0 17 7 29 23 35
23 9 6 11 -25 3z"/>
<path d="M2252 1250 c14 -22 24 -19 15 5 -4 8 -11 15 -17 15 -6 0 -6 -7 2 -20z"/>
<path d="M2018 1243 c-10 -2 -18 -9 -18 -14 0 -5 8 -9 18 -9 16 -1 16 -2 0
-13 -17 -14 -13 -30 10 -34 8 -2 12 10 12 37 0 22 -1 39 -2 39 -2 -1 -11 -3
-20 -6z"/>
<path d="M2276 1223 c-9 -18 -22 -33 -30 -33 -7 0 -19 -12 -26 -26 -13 -23
-15 -24 -21 -7 -12 28 -10 33 8 33 15 0 15 1 1 13 -9 6 -18 19 -21 27 -3 8 -5
-21 -4 -66 l2 -81 22 30 c13 17 25 39 28 48 3 10 15 21 26 24 22 7 42 40 36
58 -2 7 -11 -3 -21 -20z"/>
<path d="M2340 1241 c0 -5 11 -16 25 -25 14 -9 25 -12 25 -7 0 5 -11 16 -25
25 -14 9 -25 12 -25 7z"/>
<path d="M2315 1180 c3 -5 16 -15 28 -21 22 -12 22 -12 3 10 -19 21 -43 30
-31 11z"/>
<path d="M2221 1097 c2 -1 12 -9 22 -16 15 -12 17 -12 11 3 -3 9 -13 16 -22
16 -8 0 -13 -1 -11 -3z"/>
<path d="M2195 1071 c-3 -5 -1 -12 4 -15 5 -3 11 1 15 9 6 16 -9 21 -19 6z"/>
<path d="M2255 1008 l-16 -33 21 24 c11 13 20 27 20 32 0 18 -10 8 -25 -23z"/>
<path d="M2097 825 c-12 -11 -17 -12 -20 -2 -3 7 -6 5 -6 -5 -1 -13 7 -18 23
-18 19 0 24 5 23 20 -2 24 -2 24 -20 5z"/>
<path d="M1884 809 c-8 -14 32 -29 44 -17 14 14 42 19 42 8 0 -5 -6 -11 -12
-13 -10 -4 -10 -6 0 -6 7 -1 16 7 19 16 6 15 7 15 14 -3 7 -17 8 -17 8 4 1 18
-4 22 -30 22 -18 0 -38 -8 -46 -17 -12 -15 -14 -15 -10 -2 5 16 -19 23 -29 8z"/>
<path d="M2012 800 c0 -14 2 -19 5 -12 2 6 2 18 0 25 -3 6 -5 1 -5 -13z"/>
<path d="M2036 813 c5 -5 12 -12 16 -18 4 -6 8 -2 8 8 0 9 -7 17 -17 17 -9 0
-12 -3 -7 -7z"/>
<path d="M2060 770 l-25 -8 25 0 c14 0 36 4 50 8 l25 8 -25 0 c-14 0 -36 -4
-50 -8z"/>
<path d="M1842 763 c-16 -6 -5 -23 16 -23 14 0 15 2 3 9 -11 7 -6 11 20 14 31
3 32 4 4 5 -16 0 -36 -2 -43 -5z"/>
<path d="M1920 758 c0 -5 -10 -9 -22 -9 -17 -1 -18 -3 -6 -6 10 -2 15 -10 11
-19 -4 -11 4 -14 38 -12 43 1 43 1 7 5 -27 3 -35 8 -31 19 3 10 21 14 59 14
30 0 54 3 54 8 0 4 -25 7 -55 7 -30 0 -55 -3 -55 -7z"/>
<path d="M2105 754 l-40 -13 40 5 c40 6 52 11 44 18 -2 2 -22 -3 -44 -10z"/>
<path d="M2250 760 c0 -5 10 -10 23 -12 14 -2 23 -11 25 -25 2 -13 8 -23 13
-23 11 0 12 20 1 37 -10 15 -62 35 -62 23z"/>
<path d="M2000 741 c-31 -6 -28 -8 33 -15 38 -4 71 -5 74 -2 4 3 -11 6 -33 6
-29 0 -35 3 -24 10 13 9 13 10 0 9 -8 -1 -31 -5 -50 -8z"/>
<path d="M1938 733 c7 -3 16 -2 19 1 4 3 -2 6 -13 5 -11 0 -14 -3 -6 -6z"/>
<path d="M2201 718 c-1 -29 37 -118 51 -118 4 0 5 7 2 15 -4 10 0 15 12 16 15
0 13 3 -6 10 -29 12 -42 32 -51 74 l-6 30 -2 -27z"/>
<path d="M1868 723 c7 -3 16 -2 19 1 4 3 -2 6 -13 5 -11 0 -14 -3 -6 -6z"/>
<path d="M1998 713 c6 -2 18 -2 25 0 6 3 1 5 -13 5 -14 0 -19 -2 -12 -5z"/>
<path d="M1918 693 c19 -3 32 -10 32 -19 0 -8 7 -14 15 -14 8 0 15 5 15 11 0
5 -4 7 -10 4 -5 -3 -10 1 -10 9 0 12 -10 16 -37 14 -37 -1 -37 -1 -5 -5z"/>
<path d="M2003 693 c15 -2 39 -2 55 0 15 2 2 4 -28 4 -30 0 -43 -2 -27 -4z"/>
<path d="M2251 687 c-1 -14 4 -17 20 -12 16 6 20 4 14 -6 -6 -11 -5 -11 5 -2
17 16 3 38 -15 23 -10 -8 -14 -7 -18 2 -3 8 -6 6 -6 -5z"/>
<path d="M1863 683 c8 -13 77 -23 77 -11 0 4 -11 8 -24 8 -13 0 -32 3 -42 7
-11 4 -15 3 -11 -4z"/>
<path d="M2060 680 l-35 -7 37 -2 c20 0 40 4 43 9 7 11 7 11 -45 0z"/>
<path d="M1990 670 c0 -5 5 -10 11 -10 5 0 7 5 4 10 -3 6 -8 10 -11 10 -2 0
-4 -4 -4 -10z"/>
<path d="M2176 662 c-2 -4 -1 -14 4 -22 7 -11 9 -9 7 8 -1 24 -3 26 -11 14z"/>
<path d="M1985 650 l-80 -6 83 -2 c49 -1 82 2 82 8 0 6 -1 9 -2 8 -2 -1 -39
-5 -83 -8z"/>
<path d="M2189 604 c-20 -24 -21 -46 -1 -35 8 5 16 18 17 30 2 25 1 25 -16 5z"/>
<path d="M2041 603 c-1 -7 -8 -13 -16 -13 -8 0 -15 -9 -15 -20 0 -21 5 -23 31
-12 11 5 13 14 8 32 -4 14 -7 19 -8 13z"/>
<path d="M1940 579 c0 -20 5 -24 31 -25 25 -1 30 2 27 19 -2 11 -11 21 -21 23
-13 2 -17 -2 -13 -14 5 -13 2 -12 -9 2 -15 19 -15 19 -15 -5z"/>
<path d="M1930 980 c-13 -8 -12 -10 3 -10 9 0 17 5 17 10 0 12 -1 12 -20 0z"/>
<path d="M2261 458 c-1 -12 -7 -16 -18 -12 -15 5 -16 4 -3 -5 17 -12 35 1 27
21 -4 9 -6 8 -6 -4z"/>
<path d="M1365 2630 c3 -5 8 -10 11 -10 2 0 4 5 4 10 0 6 -5 10 -11 10 -5 0
-7 -4 -4 -10z"/>
<path d="M495 2579 c8 -28 11 -57 8 -65 -3 -8 0 -14 6 -14 20 0 4 111 -18 125
-5 3 -3 -18 4 -46z"/>
<path d="M1165 2620 c-3 -5 -2 -10 4 -10 5 0 13 5 16 10 3 6 2 10 -4 10 -5 0
-13 -4 -16 -10z"/>
<path d="M1397 2623 c-3 -5 4 -15 16 -23 21 -12 21 -12 7 6 -8 10 -15 20 -16
22 -1 2 -4 -1 -7 -5z"/>
<path d="M1510 2623 c0 -5 5 -15 10 -23 8 -12 10 -11 10 8 0 12 -4 22 -10 22
-5 0 -10 -3 -10 -7z"/>
<path d="M665 2593 l-30 -14 33 5 c17 3 32 1 32 -3 0 -5 3 -17 7 -27 4 -11 3
-15 -4 -11 -14 9 -43 -2 -43 -16 0 -7 4 -7 12 1 18 18 28 15 29 -10 0 -23 0
-23 10 1 10 24 4 77 -9 84 -4 3 -20 -2 -37 -10z"/>
<path d="M1140 2595 c0 -9 -6 -15 -14 -13 -8 2 -14 -1 -13 -7 1 -5 8 -9 15 -7
6 2 12 -2 12 -8 0 -5 -7 -10 -16 -10 -8 0 -13 -4 -10 -9 4 -5 0 -12 -6 -14 -7
-3 -8 -6 -3 -6 6 0 26 13 45 30 31 28 32 31 10 24 -22 -7 -23 -6 -12 8 9 10
10 17 2 22 -5 3 -10 -1 -10 -10z"/>
<path d="M1491 2603 c1 -5 1 -17 0 -28 -1 -17 -3 -18 -11 -5 -9 13 -10 13 -11
0 -1 -8 -1 -21 0 -28 1 -7 -2 -11 -6 -10 -12 4 -13 -9 -3 -34 7 -18 9 -19 9
-5 1 9 5 17 10 17 5 0 12 7 15 16 3 8 2 12 -4 9 -12 -8 -13 8 -1 21 15 16 23
54 12 54 -6 0 -10 -3 -10 -7z"/>
<path d="M737 2573 c-4 -3 -7 -11 -7 -17 0 -6 5 -5 12 2 6 6 9 14 7 17 -3 3
-9 2 -12 -2z"/>
<path d="M570 2562 c0 -13 27 -35 39 -30 5 1 -2 11 -15 21 -13 10 -24 14 -24
9z"/>
<path d="M460 2550 c0 -5 5 -10 10 -10 6 0 10 5 10 10 0 6 -4 10 -10 10 -5 0
-10 -4 -10 -10z"/>
<path d="M1086 2543 c-6 -14 -5 -15 5 -6 7 7 10 15 7 18 -3 3 -9 -2 -12 -12z"/>
<path d="M624 2505 c-9 -21 -2 -26 13 -10 8 9 9 16 3 20 -6 3 -13 -1 -16 -10z"/>
<path d="M914 2495 c26 -19 42 -19 26 0 -7 8 -20 15 -29 15 -13 -1 -13 -3 3
-15z"/>
<path d="M280 2490 c0 -5 8 -10 17 -10 23 0 151 -39 186 -56 16 -8 33 -12 38
-8 5 3 9 0 9 -5 0 -6 9 -11 21 -11 11 0 17 -4 14 -10 -3 -6 1 -7 9 -4 9 3 16
8 16 9 0 8 -111 55 -129 55 -11 0 -55 11 -97 25 -88 29 -84 28 -84 15z"/>
<path d="M1107 2482 c-19 -21 -22 -32 -7 -32 6 0 10 6 10 14 0 8 6 16 13 19 6
2 9 7 6 11 -3 3 -13 -2 -22 -12z"/>
<path d="M709 2450 c-13 -10 -18 -19 -11 -20 6 0 12 5 12 10 0 6 6 10 14 10 8
0 18 5 21 10 10 17 -11 11 -36 -10z"/>
<path d="M796 2455 c4 -8 11 -15 16 -15 6 0 5 6 -2 15 -7 8 -14 15 -16 15 -2
0 -1 -7 2 -15z"/>
<path d="M90 2450 c8 -5 24 -10 34 -10 26 0 18 6 -19 14 -22 5 -26 4 -15 -4z"/>
<path d="M740 2429 c0 -5 9 -9 20 -9 11 0 20 2 20 4 0 2 -9 6 -20 9 -11 3 -20
1 -20 -4z"/>
<path d="M220 2411 c0 -5 11 -12 24 -15 13 -3 32 -9 43 -12 12 -5 15 -4 8 3
-14 15 -75 34 -75 24z"/>
<path d="M630 2409 c0 -5 4 -8 9 -4 5 3 17 -5 25 -17 9 -12 16 -17 16 -11 0 7
-5 15 -10 18 -6 4 -8 11 -5 16 4 5 -3 9 -14 9 -12 0 -21 -5 -21 -11z"/>
<path d="M1070 2380 c8 -5 21 -10 28 -10 7 0 24 -12 38 -27 28 -30 41 -28 15
3 -21 26 -53 44 -78 44 -15 0 -16 -2 -3 -10z"/>
<path d="M746 2371 c-3 -5 1 -11 9 -14 9 -4 12 -1 8 9 -6 16 -10 17 -17 5z"/>
<path d="M1012 2341 c0 -27 3 -38 9 -30 5 8 22 13 41 12 l33 -2 -31 9 c-17 5
-36 20 -41 32 -10 20 -11 18 -11 -21z"/>
<path d="M355 2363 c20 -21 399 -147 419 -140 6 2 -29 16 -79 31 -49 15 -101
32 -115 38 -14 6 -63 23 -110 38 -47 16 -94 32 -105 36 -14 5 -17 4 -10 -3z"/>
<path d="M1198 2347 c49 -24 53 -34 15 -40 -16 -2 -2 -3 29 -2 37 2 68 10 89
23 l31 20 -41 0 c-22 0 -41 -4 -41 -9 0 -6 4 -8 9 -4 5 3 12 1 15 -4 3 -5 -2
-12 -11 -16 -10 -3 -19 -1 -21 4 -2 6 -10 11 -18 11 -8 0 -14 4 -14 8 0 11
-46 32 -68 31 -9 0 2 -10 26 -22z"/>
<path d="M350 2266 c0 -2 7 -7 16 -10 8 -3 12 -2 9 4 -6 10 -25 14 -25 6z"/>
<path d="M390 2246 c0 -2 7 -7 16 -10 8 -3 12 -2 9 4 -6 10 -25 14 -25 6z"/>
<path d="M1158 2193 c6 -2 18 -2 25 0 6 3 1 5 -13 5 -14 0 -19 -2 -12 -5z"/>
<path d="M470 2175 c0 -2 14 -11 30 -20 17 -9 30 -12 30 -7 0 5 -11 14 -25 20
-28 13 -35 14 -35 7z"/>
<path d="M1235 2160 c3 -5 13 -10 21 -10 8 0 14 -5 14 -12 0 -6 3 -8 6 -5 10
9 -16 37 -33 37 -8 0 -11 -4 -8 -10z"/>
<path d="M1162 2105 c0 -16 2 -22 5 -12 2 9 2 23 0 30 -3 6 -5 -1 -5 -18z"/>
<path d="M230 1970 c-6 -23 -9 -44 -7 -46 2 -3 9 14 15 38 6 23 9 44 7 46 -2
2 -9 -15 -15 -38z"/>
<path d="M212 1885 c0 -16 2 -22 5 -12 2 9 2 23 0 30 -3 6 -5 -1 -5 -18z"/>
<path d="M245 1850 c-3 -5 4 -14 15 -20 14 -8 19 -17 15 -28 -5 -13 -3 -14 5
-6 7 7 9 21 6 32 -8 23 -32 36 -41 22z"/>
<path d="M1141 1834 c0 -11 3 -14 6 -6 3 7 2 16 -1 19 -3 4 -6 -2 -5 -13z"/>
<path d="M42 1793 c70 -139 71 -142 70 -241 0 -112 16 -219 29 -187 11 28 10
56 -1 30 -5 -13 -9 27 -9 105 0 69 -4 139 -9 155 -17 54 -62 145 -73 145 -6 0
-9 -3 -7 -7z"/>
<path d="M705 1754 c-11 -9 -32 -20 -47 -26 -16 -5 -28 -14 -28 -19 0 -5 -7
-9 -15 -9 -8 0 -15 -4 -15 -10 0 -5 -6 -10 -14 -10 -8 0 -50 -35 -93 -77 -44
-43 -108 -104 -144 -135 -35 -31 -59 -57 -54 -57 6 -1 24 11 40 27 17 15 64
57 105 93 41 37 87 78 102 92 14 13 65 49 112 78 47 30 86 57 86 62 0 11 -13
8 -35 -9z"/>
<path d="M220 1747 c0 -2 -7 -44 -15 -92 -9 -48 -14 -90 -11 -92 2 -3 9 22 15
54 6 32 15 73 20 90 5 20 5 35 0 39 -5 3 -9 3 -9 1z"/>
<path d="M6 1635 c3 -87 17 -173 49 -318 8 -38 18 -98 21 -135 3 -37 9 -70 12
-74 17 -18 0 145 -27 255 -27 111 -45 215 -55 322 -2 22 -2 0 0 -50z"/>
<path d="M724 1672 c-17 -15 -73 -60 -126 -101 -83 -66 -147 -135 -135 -147 2
-2 10 7 17 21 7 13 60 62 118 107 135 107 168 135 162 141 -3 3 -19 -7 -36
-21z"/>
<path d="M594 1621 c-61 -40 -178 -150 -170 -159 3 -2 33 21 67 52 34 31 86
75 115 97 48 35 62 49 51 49 -2 0 -30 -17 -63 -39z"/>
<path d="M350 1572 c-68 -26 -127 -59 -133 -77 -4 -8 -2 -15 3 -15 6 0 10 4
10 10 0 14 72 49 155 76 49 16 61 23 40 23 -16 0 -50 -8 -75 -17z"/>
<path d="M1705 1499 c-9 -14 -2 -20 14 -10 8 6 9 11 3 15 -6 3 -14 1 -17 -5z"/>
<path d="M170 1452 c0 -28 2 -27 18 4 9 16 8 21 -4 21 -8 0 -14 -10 -14 -25z"/>
<path d="M375 1400 c-20 -27 -48 -59 -63 -71 l-27 -21 30 18 c31 18 57 47 87
96 28 44 13 33 -27 -22z"/>
<path d="M1705 1440 c-3 -5 1 -10 9 -10 9 0 16 5 16 10 0 6 -4 10 -9 10 -6 0
-13 -4 -16 -10z"/>
<path d="M278 1363 c-20 -2 -42 -11 -49 -19 -11 -13 -9 -14 17 -8 41 10 74 23
74 29 0 3 -1 4 -2 3 -2 -1 -20 -3 -40 -5z"/>
<path d="M140 1300 c-1 -118 -29 -262 -71 -357 -11 -24 -28 -63 -39 -88 -25
-57 -25 -68 -1 -54 12 8 16 19 13 32 -4 14 -2 18 7 12 10 -5 11 -2 7 13 -4 13
-1 22 9 26 9 3 14 10 11 15 -4 5 -2 21 4 35 7 20 16 26 39 26 45 0 81 -17 79
-37 -3 -38 2 -64 12 -58 5 3 10 22 10 41 0 19 1 34 3 34 1 0 43 -14 92 -31 50
-16 113 -35 140 -41 l50 -11 -33 -9 c-20 -5 -47 -5 -70 2 -48 13 -105 13 -97
0 3 -5 30 -10 58 -10 l52 -1 -50 -19 c-27 -11 -58 -24 -67 -30 -10 -5 -18 -6
-18 -1 0 5 -13 14 -30 20 -16 5 -30 15 -30 20 0 6 -8 11 -17 11 -15 0 -16 -2
-3 -10 11 -7 6 -10 -20 -11 -29 -1 -25 -3 28 -16 34 -8 62 -18 62 -22 0 -11
-87 -92 -123 -116 -21 -13 -44 -18 -88 -16 -32 1 -59 -2 -59 -6 0 -13 124 -7
151 7 13 7 49 36 79 65 31 29 74 62 97 73 55 29 177 62 233 63 l45 2 -55 7
c-30 4 -93 19 -140 35 -47 15 -123 37 -168 50 -46 13 -88 27 -92 31 -4 5 -4
81 0 169 4 88 4 169 -1 180 -6 15 -8 9 -9 -25z m-10 -305 c0 -14 -4 -25 -9
-25 -12 0 -23 29 -15 41 10 18 24 9 24 -16z"/>
<path d="M1122 1310 c0 -14 2 -19 5 -12 2 6 2 18 0 25 -3 6 -5 1 -5 -13z"/>
<path d="M1262 1293 c-11 -21 -31 -50 -43 -64 -13 -15 -25 -33 -27 -40 -2 -8
9 0 23 16 35 41 79 115 72 121 -3 3 -14 -11 -25 -33z"/>
<path d="M1811 1318 c-1 -21 15 -32 25 -17 4 7 3 9 -4 5 -6 -3 -13 2 -15 11
-4 16 -5 16 -6 1z"/>
<path d="M550 1296 c0 -9 30 -14 35 -6 4 6 -3 10 -14 10 -12 0 -21 -2 -21 -4z"/>
<path d="M1711 1284 c0 -11 3 -14 6 -6 3 7 2 16 -1 19 -3 4 -6 -2 -5 -13z"/>
<path d="M1832 1265 c-7 -8 -9 -15 -4 -15 5 0 15 7 22 15 16 19 -1 19 -18 0z"/>
<path d="M1112 1250 c0 -14 2 -19 5 -12 2 6 2 18 0 25 -3 6 -5 1 -5 -13z"/>
<path d="M1328 1214 c-18 -9 -31 -28 -38 -54 -7 -25 -27 -54 -55 -81 -25 -23
-45 -46 -45 -51 0 -4 8 0 18 10 10 9 34 31 54 47 19 17 38 42 41 57 4 15 18
39 32 54 36 38 35 41 -7 18z"/>
<path d="M1390 1189 c0 -5 5 -7 10 -4 6 3 10 8 10 11 0 2 -4 4 -10 4 -5 0 -10
-5 -10 -11z"/>
<path d="M759 1143 c-13 -17 -13 -17 6 -3 11 8 22 16 24 17 2 2 0 3 -6 3 -6 0
-17 -8 -24 -17z"/>
<path d="M665 1130 c-8 -13 5 -13 25 0 13 8 13 10 -2 10 -9 0 -20 -4 -23 -10z"/>
<path d="M1836 1115 c-3 -8 -1 -15 4 -15 6 0 10 7 10 15 0 8 -2 15 -4 15 -2 0
-6 -7 -10 -15z"/>
<path d="M486 1108 c5 -8 0 -9 -14 -6 -12 4 -22 2 -22 -4 0 -14 43 -5 48 10 2
6 -1 12 -8 12 -6 0 -8 -5 -4 -12z"/>
<path d="M1555 1110 c-8 -13 5 -13 25 0 13 8 13 10 -2 10 -9 0 -20 -4 -23 -10z"/>
<path d="M768 1051 c-39 -25 -53 -44 -87 -112 -22 -46 -38 -86 -35 -90 2 -4
-8 -17 -22 -28 -15 -12 -22 -21 -17 -21 19 0 52 47 93 133 37 79 46 90 93 117
29 16 45 30 36 30 -8 0 -36 -13 -61 -29z"/>
<path d="M870 1065 c7 -8 17 -15 22 -15 6 0 5 7 -2 15 -7 8 -17 15 -22 15 -6
0 -5 -7 2 -15z"/>
<path d="M46 1057 c3 -10 9 -15 12 -12 3 3 0 11 -7 18 -10 9 -11 8 -5 -6z"/>
<path d="M1846 1043 c-3 -10 -9 -25 -12 -33 -5 -10 0 -9 15 4 21 19 29 46 12
46 -5 0 -11 -8 -15 -17z"/>
<path d="M816 1039 c-2 -8 -7 -32 -10 -54 -2 -22 -9 -67 -15 -100 -11 -63 -28
-201 -61 -493 -10 -95 -22 -177 -25 -182 -3 -6 -2 -10 4 -10 20 0 28 36 35
150 8 135 49 477 72 603 9 48 14 90 11 94 -4 3 -9 0 -11 -8z"/>
<path d="M928 1043 c-10 -2 -18 -14 -18 -25 0 -12 1 -19 3 -17 1 2 11 14 21
27 11 12 17 21 15 21 -2 -1 -12 -3 -21 -6z"/>
<path d="M1453 1028 c-13 -6 -23 -15 -23 -20 0 -5 14 -2 30 7 45 23 38 35 -7
13z"/>
<path d="M889 1028 c-7 -26 0 -131 14 -193 11 -44 48 -143 75 -200 20 -42 27
-65 21 -77 -5 -10 -14 -28 -20 -39 -8 -15 -8 -24 0 -32 8 -8 11 -7 11 5 0 9 6
28 14 43 14 27 14 27 26 6 6 -12 10 -28 8 -37 -2 -11 6 -17 25 -20 l28 -3 -26
31 c-52 61 -135 255 -155 359 -5 25 -10 71 -11 102 -2 47 -6 68 -10 55z"/>
<path d="M2660 1020 c0 -5 5 -10 11 -10 5 0 7 5 4 10 -3 6 -8 10 -11 10 -2 0
-4 -4 -4 -10z"/>
<path d="M654 985 c-4 -8 -12 -15 -20 -15 -8 0 -14 -4 -14 -10 0 -17 15 -11
40 15 13 14 18 25 11 25 -6 0 -14 -7 -17 -15z"/>
<path d="M1090 960 c0 -5 5 -10 10 -10 6 0 10 5 10 10 0 6 -4 10 -10 10 -5 0
-10 -4 -10 -10z"/>
<path d="M576 945 c-11 -8 -17 -17 -14 -20 3 -3 16 3 29 14 27 23 14 28 -15 6z"/>
<path d="M977 940 c3 -11 7 -20 9 -20 2 0 4 9 4 20 0 11 -4 20 -9 20 -5 0 -7
-9 -4 -20z"/>
<path d="M1005 950 c3 -5 11 -10 16 -10 6 0 7 5 4 10 -3 6 -11 10 -16 10 -6 0
-7 -4 -4 -10z"/>
<path d="M2560 931 c0 -6 4 -13 10 -16 6 -3 7 1 4 9 -7 18 -14 21 -14 7z"/>
<path d="M1037 900 c-13 -16 -14 -20 -3 -20 8 0 17 7 20 16 9 25 2 26 -17 4z"/>
<path d="M1533 897 c-48 -25 -57 -41 -15 -26 30 11 83 49 67 48 -5 0 -29 -10
-52 -22z"/>
<path d="M984 894 c3 -9 6 -21 6 -27 0 -8 3 -8 10 -1 12 12 3 44 -12 44 -6 0
-7 -7 -4 -16z"/>
<path d="M1107 873 c-11 -10 -8 -33 4 -33 6 0 9 6 6 14 -3 8 -1 17 6 20 7 3 8
5 1 5 -6 1 -14 -2 -17 -6z"/>
<path d="M78 838 c5 -5 16 -8 23 -6 8 3 3 7 -10 11 -17 4 -21 3 -13 -5z"/>
<path d="M841 814 c0 -11 3 -14 6 -6 3 7 2 16 -1 19 -3 4 -6 -2 -5 -13z"/>
<path d="M195 770 c11 -5 27 -9 35 -9 13 -1 13 0 0 9 -8 5 -24 9 -35 9 -20 0
-20 0 0 -9z"/>
<path d="M690 760 c-6 -11 -9 -20 -6 -20 2 0 -3 -21 -11 -47 -28 -91 -40 -143
-33 -143 6 0 50 140 52 168 1 6 4 12 7 12 4 0 8 11 9 25 2 30 -4 32 -18 5z"/>
<path d="M1376 772 c-2 -4 -1 -14 5 -22 7 -12 9 -10 9 8 0 23 -5 28 -14 14z"/>
<path d="M1030 745 c0 -5 5 -17 10 -25 5 -8 10 -10 10 -5 0 6 -5 17 -10 25 -5
8 -10 11 -10 5z"/>
<path d="M1067 719 c7 -7 15 -10 18 -7 3 3 -2 9 -12 12 -14 6 -15 5 -6 -5z"/>
<path d="M415 700 c-3 -6 1 -7 9 -4 18 7 21 14 7 14 -6 0 -13 -4 -16 -10z"/>
<path d="M1193 688 c-2 -16 1 -18 10 -9 7 7 8 14 1 21 -6 6 -10 2 -11 -12z"/>
<path d="M265 660 c3 -5 8 -10 11 -10 2 0 4 5 4 10 0 6 -5 10 -11 10 -5 0 -7
-4 -4 -10z"/>
<path d="M550 660 c-8 -5 -12 -12 -9 -15 4 -3 12 1 19 10 14 17 11 19 -10 5z"/>
<path d="M1070 656 c0 -2 7 -7 16 -10 8 -3 12 -2 9 4 -6 10 -25 14 -25 6z"/>
<path d="M1340 651 c-14 -4 -20 -10 -14 -14 6 -3 20 0 30 8 21 16 20 16 -16 6z"/>
<path d="M2643 645 c0 -8 4 -12 9 -9 5 3 6 10 3 15 -9 13 -12 11 -12 -6z"/>
<path d="M1380 640 c0 -13 60 -13 80 0 11 7 2 10 -32 10 -27 0 -48 -4 -48 -10z"/>
<path d="M1132 624 c10 -10 20 -16 22 -13 3 3 -5 11 -17 18 -21 13 -21 12 -5
-5z"/>
<path d="M1280 633 c5 -2 8 -9 4 -14 -3 -5 0 -9 6 -9 15 0 7 23 -8 26 -7 1 -8
0 -2 -3z"/>
<path d="M44 611 c-18 -11 -36 -25 -40 -33 -7 -12 14 0 71 39 30 20 4 15 -31
-6z"/>
<path d="M1095 608 c9 -15 21 -25 27 -22 5 3 8 7 6 8 -2 0 -14 10 -27 21 l-24
20 18 -27z"/>
<path d="M830 612 c0 -4 10 -12 21 -17 16 -7 22 -20 24 -48 2 -37 10 -55 20
-45 3 3 1 17 -4 32 -8 19 -7 26 1 26 9 0 9 3 1 11 -6 6 -9 19 -6 28 4 9 3 13
-1 9 -5 -4 -19 -3 -32 2 -13 5 -24 6 -24 2z"/>
<path d="M957 596 c-3 -8 0 -17 8 -20 9 -3 13 2 12 15 -2 22 -13 25 -20 5z"/>
<path d="M1200 600 c0 -5 10 -15 23 -21 22 -12 22 -12 3 10 -21 23 -26 26 -26
11z"/>
<path d="M1180 591 c0 -6 4 -13 10 -16 6 -3 7 1 4 9 -7 18 -14 21 -14 7z"/>
<path d="M2901 543 c-10 -26 -10 -27 4 -9 8 11 15 23 15 28 0 15 -7 8 -19 -19z"/>
<path d="M2849 524 c-8 -10 -27 -25 -44 -36 l-30 -18 28 0 c15 0 26 4 25 9 -2
5 8 18 21 30 13 12 22 23 19 26 -3 3 -11 -2 -19 -11z"/>
<path d="M81 503 c-7 -16 -13 -30 -13 -33 0 -3 -5 -8 -13 -12 -7 -4 -23 -25
-35 -45 l-22 -38 30 28 c32 31 89 127 74 127 -5 0 -14 -12 -21 -27z"/>
<path d="M1129 497 c-17 -12 -31 -87 -17 -87 4 0 4 -8 1 -17 -4 -10 -8 -12
-11 -5 -2 8 -8 8 -22 0 -14 -9 -28 -9 -54 -1 -20 6 -38 7 -41 3 -6 -10 55 -20
103 -18 17 0 32 6 32 11 0 6 6 2 14 -9 13 -17 12 -21 -4 -36 -11 -10 -24 -18
-30 -18 -6 0 -9 -4 -6 -9 9 -13 32 -8 54 12 16 15 22 16 33 5 8 -7 30 -12 49
-10 19 1 64 5 99 8 35 3 66 2 70 -3 3 -5 19 -17 34 -27 34 -21 55 -67 73 -161
l14 -70 -4 56 c-12 163 -96 248 -218 219 -73 -16 -102 -13 -131 18 -32 33 -43
80 -29 122 6 16 10 30 9 30 -1 0 -9 -6 -18 -13z"/>
<path d="M795 435 c-4 -36 -5 -68 -3 -71 3 -2 8 25 12 62 4 37 5 69 2 71 -2 3
-7 -25 -11 -62z"/>
<path d="M1202 492 c5 -21 67 -86 75 -79 3 4 1 7 -5 7 -7 0 -12 5 -12 11 0 5
-14 24 -30 42 -17 18 -30 26 -28 19z"/>
<path d="M2925 470 c3 -5 8 -10 11 -10 2 0 4 5 4 10 0 6 -5 10 -11 10 -5 0 -7
-4 -4 -10z"/>
<path d="M2774 446 c-10 -8 -17 -17 -14 -19 3 -3 16 3 30 13 29 22 14 27 -16
6z"/>
<path d="M1370 423 l-45 -13 43 4 c23 2 46 6 49 10 12 12 -3 12 -47 -1z"/>
<path d="M1200 408 c0 -6 3 -8 7 -5 3 4 11 3 17 -2 18 -14 46 -21 46 -12 0 5
-14 14 -31 20 -39 14 -39 14 -39 -1z"/>
<path d="M2825 390 c-3 -11 -10 -20 -15 -20 -4 0 -11 -7 -14 -15 -5 -13 -1
-12 19 2 13 10 25 26 25 36 0 23 -7 22 -15 -3z"/>
<path d="M976 341 c-27 -18 -73 -108 -61 -119 2 -3 7 3 11 12 4 11 20 17 53
18 l46 1 -42 4 c-43 4 -51 15 -34 42 6 9 16 11 32 5 32 -10 99 -12 99 -2 0 5
-15 8 -32 8 -39 0 -63 13 -54 29 4 6 12 8 18 5 7 -4 8 -2 4 4 -9 15 -6 15 -40
-7z"/>
<path d="M782 325 c0 -16 2 -22 5 -12 2 9 2 23 0 30 -3 6 -5 -1 -5 -18z"/>
<path d="M1430 346 c0 -2 8 -10 18 -17 15 -13 16 -12 3 4 -13 16 -21 21 -21
13z"/>
<path d="M2829 333 c-13 -16 -12 -17 4 -4 16 13 21 21 13 21 -2 0 -10 -8 -17
-17z"/>
<path d="M850 321 c0 -25 6 -27 13 -6 4 8 2 17 -3 20 -6 4 -10 -3 -10 -14z"/>
<path d="M1304 305 c-17 -13 -16 -14 15 -5 19 5 38 7 44 3 6 -3 7 -1 3 5 -10
16 -38 15 -62 -3z"/>
<path d="M2516 305 c-11 -8 -15 -15 -9 -15 6 0 16 7 23 15 16 19 11 19 -14 0z"/>
<path d="M2857 303 c-10 -19 -17 -64 -9 -59 6 3 12 19 14 36 5 30 3 37 -5 23z"/>
<path d="M1158 286 c-37 -6 -71 -16 -75 -20 -4 -5 1 -6 12 -3 11 3 57 11 103
18 81 11 107 20 55 18 -16 0 -58 -6 -95 -13z"/>
<path d="M1038 263 c6 -2 18 -2 25 0 6 3 1 5 -13 5 -14 0 -19 -2 -12 -5z"/>
<path d="M2735 249 c-4 -6 -5 -12 -2 -15 2 -3 7 2 10 11 7 17 1 20 -8 4z"/>
<path d="M760 228 c-1 -7 -5 -32 -9 -56 -5 -25 -5 -40 0 -35 10 10 23 103 14
103 -3 0 -5 -6 -5 -12z"/>
<path d="M2797 219 c4 -13 8 -18 11 -10 2 7 -1 18 -6 23 -8 8 -9 4 -5 -13z"/>
<path d="M2717 200 c-3 -11 -1 -20 4 -20 5 0 9 9 9 20 0 11 -2 20 -4 20 -2 0
-6 -9 -9 -20z"/>
<path d="M866 159 c-22 -27 -57 -66 -80 -86 -35 -30 -37 -33 -11 -20 17 8 47
33 68 56 33 35 44 41 80 41 23 0 49 4 56 9 10 6 -4 8 -37 4 -52 -5 -63 2 -40
25 6 6 9 14 7 17 -3 2 -22 -18 -43 -46z"/>
<path d="M1571 174 c0 -11 3 -14 6 -6 3 7 2 16 -1 19 -3 4 -6 -2 -5 -13z"/>
<path d="M2810 181 c0 -6 4 -13 10 -16 6 -3 7 1 4 9 -7 18 -14 21 -14 7z"/>
<path d="M2699 144 c-5 -15 -8 -29 -5 -31 2 -2 8 10 14 26 13 38 5 41 -9 5z"/>
<path d="M2676 85 c-3 -9 -6 -22 -5 -28 0 -7 5 -1 10 12 5 13 8 26 5 28 -2 2
-6 -3 -10 -12z"/>
<path d="M706 25 c-11 -8 -15 -15 -10 -15 6 0 19 7 30 15 10 8 15 14 9 14 -5
0 -19 -6 -29 -14z"/>
</g>
</svg>
