 <svg version="1.0" xmlns="http://www.w3.org/2000/svg"  width="300" height="200" viewBox="80 50 300.000000 237.000000"  preserveAspectRatio="xMidYMid meet">  <g transform="translate(0.000000,237.000000) scale(0.050000,-0.050000)" fill="#000000" stroke="none"> <path d="M1 4388 c0 -303 4 -349 28 -328 16 13 35 65 41 117 18 134 47 183 108 183 64 -1 125 -38 87 -53 -14 -6 -25 -24 -25 -40 0 -16 -9 -24 -20 -17 -11 7 -20 3 -20 -9 0 -11 9 -21 20 -21 11 0 20 -15 20 -33 0 -27 -7 -25 -37 10 -59 68 -63 55 -52 -162 15 -273 20 -294 67 -281 62 16 119 -29 172 -135 58 -113 144 -148 110 -44 -76 229 -136 915 -77 883 29 -15 32 -7 25 67 -18 187 -28 215 -72 215 -40 0 -41 -7 -30 -142 l12 -142 -74 14 c-91 17 -104 25 -104 61 0 35 24 37 56 5 20 -20 22 -10 13 45 -26 155 -28 159 -79 159 -54 0 -63 -19 -27 -55 18 -18 17 -30 -1 -52 -16 -20 -17 -34 -3 -42 52 -32 24 -116 -34 -102 -66 17 -60 10 -68 71 -5 36 1 48 23 44 24 -6 25 -2 5 19 -36 36 -31 93 10 103 22 6 14 10 -19 12 l-55 2 0 -352z"/> <path d="M945 4455 c20 -157 63 -477 96 -711 71 -511 70 -464 7 -464 -48 0 -51 -5 -46 -88 5 -82 -23 -152 -62 -152 -8 0 -94 158 -190 351 -96 193 -177 349 -180 345 -15 -15 -18 -227 -4 -231 32 -7 134 -123 134 -151 0 -16 15 -36 34 -43 30 -11 31 -16 5 -32 -16 -10 -19 -19 -7 -19 65 -1 70 -150 5 -167 -23 -5 -35 -20 -28 -32 8 -12 -11 -30 -41 -42 l-55 -21 40 -40 41 -41 68 41 c37 23 89 42 114 42 26 0 64 9 85 21 31 16 49 12 83 -20 24 -23 51 -41 60 -41 30 0 16 51 -24 85 -53 46 -57 181 -6 171 26 -5 40 -44 59 -166 26 -165 15 -203 -51 -179 -27 10 -20 -141 11 -221 20 -54 -24 -31 -60 30 -19 33 -26 60 -14 60 11 0 21 8 21 18 0 10 -19 13 -43 7 -30 -8 -39 -4 -29 12 8 13 27 23 43 23 39 0 37 69 -3 101 -32 27 -67 0 -68 -52 0 -35 -143 -61 -230 -42 -44 9 -102 21 -130 27 -46 8 -47 11 -15 35 67 49 39 71 -86 71 l-121 0 88 115 c85 110 88 120 82 235 -4 66 -7 130 -7 143 -1 14 -57 25 -152 30 -157 8 -188 26 -188 107 0 33 3 35 20 10 15 -22 16 -14 7 30 -8 33 -22 63 -30 66 -9 4 -22 36 -29 70 -7 35 -33 91 -59 123 l-48 59 -21 -55 c-29 -76 -27 -89 13 -86 25 2 39 -26 58 -127 34 -175 34 -180 -12 -180 -32 0 -40 14 -41 65 -6 249 -38 238 -37 -13 0 -151 7 -209 22 -199 48 29 414 32 443 3 41 -41 -17 -85 -105 -79 -87 6 -92 10 -52 51 30 29 28 32 -29 32 -48 0 -61 -9 -61 -41 0 -22 -11 -39 -25 -38 -115 15 -186 -3 -190 -48 -4 -45 3 -48 158 -60 168 -13 204 -24 161 -51 -23 -14 -45 -75 -49 -138 -1 -14 -14 -21 -28 -15 -15 5 -27 0 -27 -11 0 -12 -11 -17 -25 -13 -25 9 -95 -56 -95 -88 0 -9 11 -18 25 -18 14 -1 76 -6 138 -11 68 -6 119 -1 126 11 33 52 228 4 229 -57 1 -49 61 -469 72 -497 6 -17 -13 -25 -58 -25 -66 0 -67 1 -80 115 -7 63 -19 149 -25 190 -10 62 -6 75 22 75 28 0 30 66 4 93 -83 82 -93 -95 -25 -406 15 -68 -5 -95 -56 -75 -21 8 -32 37 -32 86 0 41 -9 128 -20 193 -12 66 -25 148 -31 184 -10 62 -15 65 -99 65 -73 0 -87 -6 -77 -32 10 -25 16 -26 29 -5 22 35 28 11 58 -223 13 -104 33 -206 43 -225 14 -26 10 -39 -11 -47 -47 -18 -67 6 -83 97 -7 47 -30 117 -50 155 l-36 70 9 -120 c6 -66 13 -140 16 -164 5 -35 -7 -47 -52 -57 -74 -16 -100 4 -28 22 54 14 67 37 32 59 -11 7 -20 57 -20 111 0 99 -13 118 -54 77 -15 -15 -25 -15 -36 1 -20 33 71 105 117 93 32 -8 36 -1 25 52 -6 33 -12 76 -12 95 0 35 -76 81 -132 81 -34 0 -37 -207 -6 -403 9 -57 10 -113 3 -125 -69 -109 209 -147 615 -84 94 14 231 22 305 17 89 -6 135 -1 135 13 0 22 -38 31 -105 25 -22 -1 -39 17 -46 52 -7 30 -21 81 -31 113 -32 102 -23 172 22 172 24 0 40 13 40 32 0 28 5 29 33 5 18 -15 36 -25 40 -22 50 36 111 -186 69 -252 -13 -21 -26 -22 -60 -4 -35 18 -45 17 -55 -9 -19 -51 2 -57 226 -64 l212 -6 -72 79 c-39 43 -85 106 -102 140 -18 33 -41 61 -52 61 -10 0 -19 10 -19 21 0 12 9 16 20 9 22 -13 12 127 -22 329 -50 301 46 462 188 316 74 -77 203 -165 230 -159 21 5 22 -3 5 -34 -23 -43 -20 -96 8 -140 12 -19 10 -24 -6 -14 -36 22 -27 -24 12 -64 19 -19 49 -61 65 -93 l30 -58 6 73 c4 40 -3 124 -15 187 -26 144 -34 141 142 48 154 -81 228 -94 247 -44 14 36 397 15 460 -25 62 -39 229 -75 290 -62 35 8 62 1 79 -19 14 -17 32 -26 41 -21 8 5 57 -5 108 -22 113 -39 123 -95 32 -188 -65 -66 -77 -115 -32 -132 22 -8 24 -26 11 -72 -10 -33 -16 -66 -14 -73 7 -29 -29 -103 -45 -93 -10 6 -23 1 -30 -11 -10 -15 -22 -14 -41 2 -15 12 -44 17 -65 10 -23 -7 -49 0 -63 18 -32 38 -71 3 -76 -66 -1 -26 -19 -65 -38 -87 -35 -38 -35 -39 20 -25 55 14 56 12 50 -58 -4 -48 6 -87 29 -113 46 -55 44 -60 -27 -60 -39 0 -56 -8 -48 -22 8 -13 -2 -19 -26 -15 -54 10 -145 -43 -145 -83 0 -18 14 -33 30 -33 17 0 30 7 30 15 0 8 20 22 45 29 25 8 51 24 59 36 9 14 28 8 57 -18 43 -39 43 -39 39 1 -7 65 -1 82 19 50 15 -24 24 -25 44 -5 14 14 35 25 48 25 33 0 111 -71 95 -87 -7 -7 -2 -13 11 -13 13 0 23 -16 23 -37 0 -48 21 -67 48 -45 20 17 78 3 200 -49 31 -13 36 -9 26 17 -17 44 57 94 139 94 63 0 187 56 187 85 0 8 -27 15 -59 15 -35 0 -67 14 -78 34 -16 28 -24 30 -50 8 -51 -42 -231 12 -202 60 6 10 -2 18 -19 18 -16 0 -44 20 -61 45 -18 25 -53 45 -79 46 -59 1 -38 -47 63 -144 36 -34 65 -76 65 -93 0 -21 -17 -15 -58 24 -61 57 -188 106 -232 89 -29 -11 -90 65 -90 114 0 83 147 133 257 87 72 -30 118 -20 86 19 -13 16 -4 35 29 59 26 20 48 26 48 15 0 -12 14 -21 30 -21 40 0 39 35 -1 44 -45 9 -116 228 -102 313 18 110 139 194 181 126 17 -28 132 -487 132 -528 0 -21 70 -107 156 -192 159 -155 191 -214 235 -433 l12 -59 38 49 c51 66 49 103 -9 169 -34 40 -45 73 -39 114 6 32 0 57 -12 57 -11 0 -21 13 -21 30 0 16 -22 43 -48 60 -29 19 -44 45 -39 66 5 21 -16 53 -56 84 -35 28 -83 70 -108 95 -24 25 -53 45 -64 45 -29 0 -39 35 -41 150 -2 55 -9 151 -16 214 -13 112 -12 114 42 128 66 16 394 -6 409 -29 6 -8 50 -17 97 -18 48 -2 133 -16 190 -32 57 -16 128 -34 157 -41 82 -18 84 -155 5 -359 -12 -32 -7 -35 29 -24 30 10 47 4 55 -18 7 -17 30 -31 51 -31 22 0 34 -9 27 -20 -7 -11 1 -14 19 -8 20 8 31 1 31 -19 0 -52 -172 -12 -187 44 -4 18 -9 8 -11 -23 -1 -41 6 -54 31 -50 18 3 37 -5 42 -19 4 -14 -7 -25 -27 -25 -47 0 -9 -40 44 -48 43 -7 65 -72 24 -72 -51 0 -116 62 -116 111 0 27 -8 49 -18 49 -10 0 -14 17 -8 38 9 38 7 38 -61 5 -89 -42 -96 -73 -64 -260 15 -84 30 -234 34 -333 l6 -180 -118 -6 c-111 -6 -116 -4 -90 30 54 70 90 99 114 91 51 -17 23 35 -34 65 l-59 30 -22 -85 c-50 -195 -125 -316 -354 -566 -205 -224 -211 -227 -482 -220 -124 3 -229 -1 -234 -9 -16 -26 -112 4 -136 43 -13 20 -39 37 -58 37 -18 0 -40 10 -47 22 -7 12 -30 17 -50 12 -23 -6 -83 28 -166 93 -71 57 -153 120 -181 140 -28 21 -84 69 -126 107 -42 38 -83 75 -92 82 -52 46 -174 189 -174 205 0 10 -18 30 -40 44 -22 13 -40 35 -40 49 0 13 -18 55 -40 92 -23 38 -35 83 -28 102 7 19 -2 49 -21 71 -19 21 -36 54 -39 73 -3 20 -17 40 -31 44 -64 22 40 -324 151 -500 50 -79 363 -396 391 -396 8 0 20 -18 27 -40 7 -22 22 -40 32 -40 33 0 203 -82 233 -112 15 -15 45 -40 68 -56 49 -35 19 -119 -35 -98 -23 8 -30 2 -25 -24 10 -51 77 -57 77 -7 0 22 9 34 21 26 11 -7 15 -29 9 -48 -12 -38 16 -56 110 -74 71 -14 76 -27 9 -27 -42 0 -51 -6 -35 -22 25 -25 120 -31 141 -9 8 7 1 21 -15 31 -23 14 -19 22 20 38 28 11 39 20 25 21 -14 0 -25 10 -25 21 0 11 34 19 75 17 98 -3 323 23 381 45 103 39 -11 -279 -167 -468 l-113 -135 142 3 c138 3 141 4 130 51 -10 39 -4 47 35 49 33 2 37 5 13 12 -32 8 -30 16 12 82 59 95 80 158 106 329 9 63 19 75 60 75 27 0 44 8 38 17 -6 9 3 34 19 55 28 35 30 32 22 -42 -11 -100 -31 -150 -60 -150 -13 0 -9 -9 7 -20 17 -11 21 -20 9 -20 -52 0 -85 -247 -39 -293 17 -16 30 -57 30 -90 0 -53 6 -59 55 -53 57 6 74 139 35 268 -8 26 -1 54 17 72 23 24 25 36 7 54 -18 18 -17 27 3 40 14 9 26 22 25 29 -9 66 1 113 21 101 16 -10 20 -4 11 18 -31 82 44 350 90 322 11 -7 17 4 15 25 -9 89 1 97 52 42 56 -61 85 -70 265 -80 99 -6 131 -16 154 -49 24 -34 45 -40 105 -34 41 5 359 36 705 69 876 83 800 68 800 162 l0 78 -175 -11 c-96 -6 -202 -14 -235 -20 -70 -11 -189 -24 -370 -41 -71 -6 -148 -16 -170 -21 -22 -5 -197 -18 -390 -30 -192 -11 -396 -25 -451 -31 -78 -8 -107 -3 -128 22 -35 42 -19 55 73 63 42 4 112 11 156 16 44 6 134 15 200 21 66 6 255 25 420 41 165 16 435 38 600 50 463 32 470 34 470 102 0 55 -4 58 -89 58 -64 0 -95 10 -109 35 -20 33 -21 33 -21 0 -1 -37 -34 -45 -77 -18 -21 13 -19 29 10 80 36 63 101 90 79 33 -7 -16 -2 -30 11 -30 15 0 18 57 9 195 -7 107 -18 287 -26 400 l-13 205 113 0 c106 0 113 3 113 49 0 54 -4 54 -168 3 -54 -16 -124 -25 -155 -18 -135 27 -7 86 187 86 l142 0 -13 124 c-7 68 -24 131 -38 140 -18 11 -15 15 10 16 29 0 35 17 32 95 -1 52 -6 75 -11 50 -9 -49 -21 -54 -63 -27 -22 14 -21 26 8 70 38 59 16 152 -37 152 -32 0 -101 -73 -124 -130 -15 -36 -17 -36 -25 -5 -5 22 -27 35 -57 35 -90 0 20 -132 159 -190 132 -55 81 -87 -192 -119 -98 -12 -115 -20 -115 -55 0 -28 -9 -37 -32 -28 -17 7 -51 12 -76 12 -41 0 -47 16 -74 192 l-29 191 55 -8 c61 -9 61 -8 43 62 -10 38 -23 45 -70 38 -70 -10 -82 86 -21 167 99 132 127 202 45 114 -35 -37 -41 -38 -41 -10 0 19 -13 34 -30 34 -19 0 -30 19 -30 50 0 49 -4 50 -121 45 l-121 -5 13 -165 14 -165 -83 0 c-78 0 -82 3 -82 61 0 39 8 56 22 48 12 -7 8 12 -8 44 -34 67 -64 318 -40 333 9 6 138 13 286 16 l270 7 23 -270 c13 -148 24 -348 25 -444 2 -161 5 -175 42 -175 48 0 47 -24 12 451 -19 255 -36 379 -60 425 l-34 65 -244 -12 c-134 -6 -275 -16 -312 -21 l-68 -11 13 -146 c7 -80 18 -197 25 -260 l14 -113 -123 4 c-104 4 -123 10 -123 41 0 55 -29 45 -53 -18 -19 -49 -23 -51 -37 -17 -10 21 -6 66 9 107 14 39 29 112 33 163 5 50 14 118 21 150 8 36 5 53 -7 46 -28 -17 -18 62 11 91 18 19 204 28 709 35 l684 10 6 75 c6 68 2 74 -40 70 -43 -5 -46 3 -52 120 l-6 125 -62 -32 c-46 -24 -65 -26 -76 -8 -11 17 -19 18 -29 2 -24 -39 -51 -23 -51 30 0 45 4 49 31 27 25 -20 35 -19 55 6 13 16 48 36 77 42 61 15 85 61 57 113 -23 43 -97 32 -115 -18 -17 -45 -46 -61 -111 -62 -31 0 -51 -8 -45 -19 6 -10 3 -24 -9 -31 -11 -7 -20 -33 -20 -58 0 -45 -4 -46 -150 -36 -103 6 -159 1 -180 -16 -26 -21 -30 -16 -30 38 0 58 -4 62 -55 50 -74 -18 -75 -20 -27 -61 68 -59 54 -63 -215 -66 l-258 -2 -13 64 c-7 36 -3 74 8 85 13 13 20 11 20 -8 0 -22 5 -23 25 -3 17 17 18 29 3 39 -22 14 -52 153 -52 242 0 37 -4 41 -19 20 -14 -21 -17 -15 -13 22 3 28 -4 53 -15 56 -10 4 -35 21 -54 39 -19 17 -35 22 -35 11 0 -12 14 -32 30 -46 39 -33 38 -75 -4 -116 -31 -32 -31 -34 3 -41 20 -4 44 5 53 20 12 18 17 8 17 -33 0 -48 -4 -54 -21 -30 -16 23 -18 15 -8 -30 7 -33 21 -63 30 -66 10 -4 13 -19 7 -34 -6 -15 -21 -23 -34 -18 -13 4 -32 -12 -43 -37 -11 -25 -58 -64 -105 -88 -71 -36 -80 -46 -55 -67 16 -14 24 -34 17 -45 -7 -10 0 -27 15 -37 22 -14 22 -17 2 -18 -15 0 -20 -10 -13 -22 8 -12 3 -29 -10 -38 -19 -11 -18 -21 4 -42 22 -21 24 -36 8 -62 -16 -25 -13 -59 13 -130 39 -109 45 -206 12 -206 -12 0 -17 -13 -11 -29 6 -15 -2 -39 -18 -52 -16 -13 -29 -52 -29 -86 0 -35 -14 -159 -32 -277 -35 -223 -30 -276 22 -276 25 0 27 8 10 40 -31 57 -13 50 74 -30 l76 -70 -140 41 c-77 22 -225 63 -330 91 -104 27 -228 64 -275 82 -47 17 -92 26 -99 19 -7 -7 3 -13 22 -13 19 0 30 -7 25 -15 -9 -14 -402 -17 -503 -3 -22 2 -75 30 -117 61 -43 31 -86 51 -97 45 -10 -6 -47 2 -82 19 -36 17 -112 37 -171 44 -72 10 -98 20 -80 32 18 12 9 14 -24 6 -29 -6 -134 3 -235 20 -100 18 -204 27 -231 20 -30 -7 -59 0 -79 20 -45 45 -79 39 -63 -12 10 -32 7 -38 -14 -25 -15 10 -99 45 -187 78 -142 53 -161 66 -166 115 -4 30 -15 55 -25 55 -11 0 -19 10 -19 21 0 12 9 16 20 9 11 -7 20 -1 21 14 0 16 12 10 32 -14 30 -38 31 -38 22 20 -5 33 -5 49 0 35 11 -35 38 -31 53 7 19 51 14 68 -18 55 -19 -7 -30 1 -30 22 0 18 10 27 21 20 43 -26 119 -22 144 8 20 24 20 28 0 16 -15 -10 -25 -4 -25 14 0 16 11 34 25 40 18 8 15 17 -9 32 -19 12 -29 35 -23 52 7 18 -1 29 -20 29 -38 0 -66 -39 -29 -41 14 -1 8 -9 -14 -18 -27 -10 -45 -7 -56 12 -21 36 -54 35 -54 -2 0 -18 -12 -25 -30 -18 -16 6 -30 2 -30 -9 0 -11 11 -25 25 -31 25 -10 -33 -21 -80 -14 -35 4 -55 -57 -28 -84 13 -13 23 -48 23 -79 0 -31 8 -56 19 -56 10 0 17 -18 16 -40 -4 -51 -67 -53 -98 -2 -14 22 -37 33 -56 27 -17 -6 -24 -4 -16 5 23 25 -43 87 -82 77 -33 -9 -69 57 -93 167 -4 20 -21 81 -38 136 -18 55 -32 138 -32 185 0 47 -8 85 -18 85 -10 0 -11 30 -2 70 9 40 8 65 -2 59 -10 -6 -18 21 -18 60 0 39 -11 89 -24 110 -20 32 -16 44 25 78 27 22 42 47 33 56 -9 9 -25 3 -35 -14 -14 -23 -18 -19 -19 19 0 42 7 46 60 35 93 -19 72 23 -35 71 -65 29 -84 45 -60 51 19 4 35 16 35 26 0 11 10 19 21 19 12 0 16 -9 9 -20 -7 -11 1 -14 19 -8 50 20 11 53 -51 43 -33 -4 -59 1 -60 13 -2 12 -5 47 -9 77 -4 33 3 55 17 55 14 0 12 8 -6 20 -16 11 -66 20 -111 20 l-81 0 37 -285z m3702 -480 c22 -79 15 -135 -17 -135 -35 0 -37 10 -10 60 13 25 13 42 0 50 -25 15 -27 70 -2 70 9 0 23 -20 29 -45z m-55 -66 c-20 -15 -50 -21 -68 -14 -21 8 -24 15 -8 20 13 5 24 21 24 37 0 24 8 25 44 6 41 -22 41 -25 8 -49z m148 -79 c-27 -70 -94 -131 -130 -117 -43 16 -39 26 43 110 80 82 116 84 87 7z m1037 19 c13 -28 23 -64 23 -80 0 -34 -105 -65 -115 -34 -4 13 -33 14 -83 3 -78 -17 -317 -10 -337 11 -7 6 -36 11 -66 11 -43 0 -53 9 -51 45 2 29 15 44 36 42 20 -1 29 9 22 25 -8 23 40 28 269 28 l279 0 23 -51z m-567 -590 c16 -70 -2 -104 -23 -47 -8 21 -23 44 -33 51 -21 14 -2 57 26 57 9 0 23 -28 30 -61z m50 -145 c0 -46 -33 -94 -64 -94 -15 0 -2 89 18 125 18 32 46 13 46 -31z m-151 -129 c7 -19 4 -37 -8 -41 -11 -4 -21 -20 -21 -36 0 -16 -20 -37 -45 -47 -25 -10 -35 -19 -22 -20 15 -1 20 -24 14 -64 -10 -58 -8 -60 21 -32 18 18 32 42 32 54 0 17 90 32 145 23 8 -1 15 9 15 23 1 18 6 17 18 -3 10 -16 13 -41 7 -57 -9 -23 -14 -24 -27 -2 -21 33 -25 -62 -5 -113 10 -27 16 -28 29 -7 12 18 17 7 17 -33 0 -40 -5 -51 -17 -33 -13 21 -19 20 -29 -5 -15 -41 -53 -42 -53 -2 0 35 -32 40 -51 8 -8 -12 -38 -17 -69 -11 -30 6 -65 0 -78 -13 -19 -19 -31 -16 -51 11 -31 42 -131 17 -131 -32 0 -24 46 -27 270 -19 187 7 270 3 270 -12 0 -12 -11 -23 -25 -24 -120 -11 -165 -22 -179 -43 -12 -19 -15 -19 -16 2 0 23 -53 26 -291 18 -266 -8 -344 1 -289 35 12 7 20 84 20 176 -1 186 8 288 27 307 7 8 13 -8 14 -35 l1 -48 31 45 c18 25 39 45 48 45 25 0 78 -119 66 -149 -5 -16 7 -45 28 -66 31 -31 33 -42 11 -62 -15 -14 -22 -33 -16 -43 18 -30 70 1 70 42 0 21 14 38 30 38 19 0 30 -20 30 -56 0 -41 10 -56 40 -58 56 -5 68 26 26 69 -135 137 -86 263 117 302 7 2 19 -13 26 -32z m-4251 -475 c27 -219 28 -293 4 -250 -17 31 -62 355 -61 441 1 102 35 -12 57 -191z m5098 -25 c-7 -60 -176 -90 -176 -31 0 14 13 20 30 13 17 -6 30 -1 30 12 0 20 64 56 106 60 9 0 14 -24 10 -54z m-521 -93 c22 -22 -150 -36 -311 -25 -96 6 -185 12 -199 12 -14 1 -25 10 -25 22 0 21 513 12 535 -9z m-2229 -92 c-6 -22 -19 -46 -29 -52 -12 -7 -11 -21 1 -36 14 -17 9 -24 -19 -27 -21 -1 -43 6 -50 16 -6 11 -4 19 6 19 9 0 18 19 20 43 3 40 35 76 68 77 7 0 9 -18 3 -40z m1874 -9 c0 -15 -99 -23 -310 -25 -274 -2 -333 5 -302 36 22 20 612 10 612 -11z m170 8 c-110 -23 -150 -23 -150 1 0 11 50 19 115 18 114 -3 114 -3 35 -19z m386 -98 c4 -12 16 -16 26 -10 22 14 23 -12 1 -47 -9 -14 -28 -23 -42 -20 -15 3 -28 -14 -30 -42 -4 -42 -2 -44 19 -15 36 48 50 41 50 -27 0 -47 -9 -60 -40 -60 -22 0 -40 -10 -40 -23 0 -14 -24 -18 -67 -11 -62 10 -68 6 -68 -38 0 -26 8 -48 18 -48 9 0 17 9 17 20 0 11 17 20 39 20 21 0 44 8 50 18 13 22 86 5 104 -23 8 -13 -7 -17 -40 -11 -36 7 -53 2 -53 -16 0 -16 13 -22 30 -15 17 6 30 1 30 -11 0 -13 -13 -28 -28 -34 -16 -6 -23 -27 -17 -49 7 -30 -1 -39 -35 -39 -37 0 -42 8 -32 50 9 36 5 50 -15 50 -51 0 -51 -53 0 -107 55 -59 97 -68 114 -23 7 17 21 30 32 30 12 0 21 -13 21 -30 0 -16 -8 -30 -18 -30 -10 0 -16 -16 -15 -35 2 -25 -9 -33 -42 -29 -27 4 -50 -6 -57 -25 -7 -17 -29 -31 -50 -31 -23 0 -37 -13 -36 -35 1 -21 5 -25 11 -10 7 18 21 19 48 4 31 -16 36 -14 26 11 -8 22 2 30 37 30 26 0 59 11 72 24 13 13 30 16 39 8 8 -9 -7 -33 -35 -54 -27 -20 -63 -50 -80 -65 -42 -39 -120 -61 -120 -34 0 39 -83 23 -94 -19 -6 -22 -22 -40 -36 -40 -14 0 -30 -17 -35 -39 -7 -26 -33 -41 -78 -47 -67 -8 126 -1 393 16 121 7 130 6 62 -11 -44 -11 -206 -22 -360 -24 -159 -3 -288 -14 -297 -25 -9 -12 -15 -10 -15 5 0 14 -20 24 -45 24 -43 -2 -43 -3 -5 -18 29 -11 0 -20 -100 -29 -77 -7 -180 -18 -230 -25 -138 -17 -82 12 63 33 l127 18 -160 -8 c-87 -4 -162 -17 -166 -29 -9 -26 -69 -28 -95 -3 -10 10 -41 22 -67 25 -49 7 -86 57 -43 57 13 0 45 24 72 53 27 29 49 46 49 37 0 -8 14 -4 30 10 25 21 30 19 30 -11 0 -32 16 -34 165 -22 91 7 194 13 230 13 40 0 78 15 98 38 18 21 46 34 62 27 23 -9 24 -14 2 -28 -16 -10 39 -13 130 -8 182 10 164 1 179 96 8 55 4 75 -15 75 -14 0 -37 14 -51 30 -22 27 -28 27 -50 -4 -21 -28 -34 -30 -75 -12 -39 18 -62 17 -103 -5 -47 -24 -155 -36 -252 -28 -50 4 -239 -18 -258 -30 -42 -26 -82 15 -82 83 0 55 7 68 31 58 18 -6 26 -3 19 8 -7 11 -26 20 -42 20 -41 0 -30 124 12 135 24 6 25 4 3 -11 -22 -15 -19 -28 14 -66 23 -27 55 -66 71 -88 16 -22 35 -34 42 -26 8 7 -11 38 -41 69 -34 34 -46 58 -31 63 18 6 18 15 0 36 -18 23 -15 28 20 28 23 0 42 -11 42 -25 1 -19 5 -19 17 1 11 17 35 22 70 13 33 -8 53 -5 53 9 0 12 14 22 30 22 17 0 30 -9 30 -20 0 -11 13 -20 29 -20 25 0 25 7 0 55 -17 33 -21 58 -9 62 11 3 20 33 20 65 0 33 14 80 31 106 28 44 27 48 -10 57 -45 12 -96 -33 -62 -54 12 -8 -2 -33 -34 -60 -57 -49 -105 -39 -105 22 0 23 9 24 45 5 25 -13 38 -16 30 -8 -8 9 -4 29 9 44 19 24 14 26 -28 16 -30 -8 -57 -4 -65 8 -7 12 -30 22 -50 22 -20 0 -47 14 -61 30 -21 25 -18 30 18 30 23 0 42 -10 42 -21 0 -12 9 -16 20 -9 10 6 37 2 59 -10 32 -17 38 -15 29 8 -9 23 13 29 111 29 68 1 141 6 162 13 23 8 39 3 39 -10 0 -14 11 -16 33 -4 38 22 107 8 107 -20 0 -11 -15 -15 -32 -8 -23 9 -29 4 -21 -17 7 -19 1 -25 -18 -18 -19 7 -29 -1 -29 -24 0 -20 6 -30 13 -23 7 7 28 4 48 -7 29 -15 37 -11 43 24 3 24 24 53 46 65 22 12 45 28 50 36 27 34 385 32 396 -3z m-885 -282 c0 -24 -10 -36 -25 -30 -14 5 -26 2 -26 -8 0 -10 -24 -16 -53 -13 -59 7 -111 92 -56 92 16 0 29 -10 29 -21 0 -12 18 -9 42 8 52 37 89 25 89 -28z m949 -453 c0 -17 -83 -86 -103 -86 -46 0 17 91 65 95 21 1 38 -3 38 -9z m-1362 -294 c-19 -19 -219 -30 -208 -11 7 10 58 19 115 19 56 0 98 -4 93 -8z m-1525 -544 c97 -41 102 -46 66 -69 -43 -28 -79 -23 -79 11 0 16 -22 35 -50 42 -27 7 -50 20 -50 30 0 26 24 22 113 -14z"/> <path d="M4628 2747 c7 -17 13 -59 14 -94 2 -34 7 -47 12 -28 5 19 17 35 27 35 42 0 20 111 -23 115 -30 2 -38 -6 -30 -28z"/> <path d="M5150 2720 c-8 -13 -31 -19 -52 -14 -24 7 -38 0 -38 -18 0 -15 11 -28 25 -27 34 0 105 56 91 70 -7 6 -18 1 -26 -11z"/> <path d="M5352 2105 c6 -36 3 -65 -8 -65 -10 0 -15 -21 -10 -46 6 -27 23 -45 45 -45 24 0 33 10 25 29 -8 21 0 26 33 17 23 -6 43 -3 43 7 0 10 14 18 30 18 38 0 39 32 1 47 -15 6 -39 -2 -52 -18 -24 -30 -68 -20 -49 11 6 10 -2 25 -17 34 -15 9 -33 30 -40 46 -7 17 -7 1 -1 -35z"/> <path d="M5428 2136 c-5 -7 -1 -18 8 -24 23 -13 104 8 104 28 0 19 -100 16 -112 -4z"/> <path d="M4890 2054 c-49 -57 -70 -180 -36 -205 20 -14 27 -37 19 -58 -9 -23 -5 -31 12 -26 17 6 25 52 25 137 0 70 7 139 16 153 21 32 -9 31 -36 -1z"/> <path d="M5040 1953 c0 -16 21 -28 48 -28 33 0 45 9 38 28 -6 15 -27 27 -48 27 -21 0 -38 -12 -38 -27z"/> <path d="M4740 1715 c0 -28 14 -56 30 -62 17 -7 30 -2 30 10 0 12 14 16 30 10 19 -7 30 0 30 19 0 17 -10 24 -21 17 -12 -7 -39 3 -60 22 -38 34 -39 33 -39 -16z"/> <path d="M4597 1699 c48 -40 103 -52 103 -23 0 32 -49 64 -99 63 l-51 0 47 -40z"/> <path d="M1165 4700 c-35 -55 -31 -65 15 -40 32 17 37 15 27 -10 -7 -19 0 -30 21 -30 18 0 42 -22 52 -50 10 -27 25 -50 32 -50 7 0 7 14 1 30 -7 17 -3 30 8 30 10 0 19 13 19 29 0 16 14 37 31 46 44 25 14 85 -43 85 -33 0 -43 -9 -35 -30 7 -19 -1 -30 -21 -30 -18 0 -32 14 -32 30 0 43 -46 37 -75 -10z"/> <path d="M1563 4689 c-28 -63 -30 -136 -3 -119 12 7 15 21 9 31 -6 11 -2 19 10 19 12 0 30 -20 38 -43 10 -27 22 -35 30 -22 8 12 5 28 -5 34 -11 6 -14 43 -8 81 14 86 -35 98 -71 19z"/> <path d="M2128 4723 c31 -49 -141 -94 -207 -54 -21 13 -25 7 -16 -26 16 -63 -28 -53 -74 16 -44 65 -72 64 -57 -4 7 -32 4 -37 -9 -18 -16 21 -22 21 -31 -5 -7 -17 -4 -36 7 -43 10 -6 19 -22 19 -35 0 -15 -8 -13 -19 5 -28 44 -46 13 -51 -89 -3 -49 -13 -91 -23 -91 -58 -3 -94 31 -141 134 -42 91 -55 107 -61 73 -5 -26 -18 -40 -34 -34 -49 19 -50 -51 -1 -107 27 -30 49 -44 49 -31 1 13 -8 29 -19 36 -11 7 -20 23 -20 35 0 13 34 -10 76 -51 42 -41 87 -74 100 -74 13 0 24 -8 24 -19 0 -10 17 -15 38 -11 25 4 36 -4 35 -27 -4 -43 -76 -86 -105 -62 -11 10 -43 22 -70 27 -26 5 -48 10 -48 12 0 2 -13 6 -30 9 -16 4 -55 13 -85 21 -54 14 -55 13 -57 -83 0 -53 -4 -110 -8 -127 -30 -134 -33 -200 -10 -200 14 0 19 -13 12 -32 -8 -21 -4 -27 13 -20 14 7 41 18 60 24 19 7 35 21 35 30 0 10 21 18 47 18 26 0 73 22 105 50 32 27 65 50 73 50 8 0 15 9 15 20 0 29 -75 25 -85 -5 -6 -19 -17 -18 -46 5 -21 17 -30 19 -22 5 21 -35 -49 -33 -97 3 -46 33 -12 92 51 92 21 0 45 15 55 33 14 25 36 29 96 19 43 -8 107 -16 143 -18 43 -3 62 -13 56 -29 -14 -36 3 -31 49 15 44 44 105 200 79 200 -9 0 -22 -9 -29 -20 -7 -11 -22 -20 -34 -20 -13 0 -12 11 4 30 14 17 36 30 49 30 53 0 103 58 71 82 -25 18 -23 20 8 9 22 -7 46 -1 55 13 27 42 20 51 -33 41 -27 -5 -50 -1 -50 11 0 22 47 44 95 44 17 0 59 21 93 46 34 25 89 58 122 74 60 28 60 28 11 36 -36 6 -63 -8 -97 -47 -46 -54 -47 -54 -41 -9 4 27 -5 50 -21 56 -16 5 -22 0 -14 -13z m-224 -282 c83 24 54 -2 -39 -34 -97 -34 -138 -34 -151 1 -15 38 7 56 37 32 16 -14 32 -10 51 13 25 30 29 30 34 2 5 -25 18 -28 68 -14z"/> <path d="M2415 4709 c-30 -17 -55 -39 -55 -50 0 -10 -14 -19 -32 -19 -38 0 -148 -62 -148 -83 0 -8 29 -3 65 12 36 14 109 32 163 40 61 9 89 20 73 30 -14 9 -42 12 -63 6 -21 -5 -38 -1 -38 10 0 38 119 45 201 12 43 -17 93 -26 110 -19 17 6 26 4 20 -6 -6 -10 2 -28 18 -41 16 -13 24 -35 19 -48 -5 -14 18 -45 51 -69 l60 -45 43 43 c27 27 48 35 56 21 16 -26 51 -5 68 42 7 20 20 34 28 33 41 -7 53 5 26 24 -26 19 -26 20 3 11 44 -14 78 25 74 86 -2 44 -4 45 -11 8 -4 -24 -26 -48 -48 -53 -39 -10 -39 -9 -9 38 30 45 30 48 -9 48 -26 0 -41 -14 -43 -40 -2 -22 -4 -51 -5 -65 -4 -55 -152 -85 -152 -31 0 10 9 13 20 6 11 -7 20 0 20 16 0 15 23 38 50 50 28 13 50 32 50 44 0 30 -195 25 -207 -5 -8 -20 -10 -20 -11 0 -3 37 -316 32 -387 -6z"/> <path d="M3220 4690 c0 -27 -10 -50 -23 -50 -13 0 -18 -6 -11 -12 7 -7 -8 -30 -32 -50 -24 -20 -35 -38 -24 -39 96 -11 136 -6 156 19 20 25 18 27 -15 15 -37 -14 -37 -13 -5 23 42 46 44 72 4 57 -16 -7 -30 -3 -30 8 0 10 9 19 19 19 11 0 15 14 8 30 -18 47 -47 35 -47 -20z"/> <path d="M3300 4698 c0 -20 7 -40 17 -46 9 -6 12 -36 8 -68 -23 -153 172 -67 233 102 l21 56 -140 -4 c-119 -3 -139 -9 -139 -40z"/> <path d="M3600 4670 c0 -49 -9 -70 -30 -70 -16 0 -30 -9 -30 -20 0 -11 -13 -20 -29 -20 -18 0 -25 -12 -18 -30 7 -18 0 -30 -16 -30 -15 0 -1 -14 30 -30 32 -17 72 -29 90 -28 21 1 24 5 8 11 -14 6 -20 19 -14 29 6 10 -3 18 -21 18 -18 0 -27 9 -20 20 16 25 130 26 130 1 0 -10 -16 -22 -35 -27 -30 -8 -30 -10 -2 -12 17 -1 43 11 56 27 13 16 36 24 52 18 17 -7 32 8 40 41 7 29 26 52 40 52 28 0 69 59 69 99 0 56 -78 16 -106 -55 -43 -108 -85 -139 -113 -85 -15 27 -16 41 -2 41 12 0 21 -11 21 -24 0 -44 35 12 49 79 14 65 14 65 -67 65 -80 0 -82 -1 -82 -70z"/> <path d="M3985 4712 c47 -36 44 -51 -8 -37 -35 9 -41 5 -31 -22 7 -18 6 -30 -3 -28 -9 3 -69 -51 -134 -119 -130 -135 -156 -141 -369 -83 -144 39 -307 56 -334 34 -19 -16 -26 -16 -26 1 0 29 -74 28 -92 -1 -10 -16 -4 -20 19 -11 36 14 48 -35 13 -56 -40 -25 -19 -50 41 -50 34 0 56 -8 50 -18 -6 -10 13 -16 43 -13 30 4 73 -1 95 -10 41 -16 41 -16 1 -19 -30 -3 -26 -8 17 -20 31 -10 68 -13 83 -7 15 5 32 -7 39 -29 8 -27 37 -43 92 -52 44 -7 85 -26 92 -41 6 -16 41 -39 77 -51 37 -12 78 -35 91 -51 13 -16 41 -29 61 -29 21 0 38 -13 38 -28 0 -15 32 -47 70 -69 39 -23 69 -49 68 -57 -7 -41 5 -66 31 -66 15 0 34 -18 41 -40 7 -22 26 -40 41 -40 40 0 36 32 -6 64 -42 31 -112 136 -99 148 44 45 -49 161 -160 200 -125 43 -366 182 -366 210 0 9 -25 30 -55 47 -88 47 -6 35 125 -19 137 -56 209 -62 286 -22 69 36 191 204 176 243 -6 17 1 29 19 29 16 0 29 17 29 38 0 21 5 53 12 70 9 25 -1 32 -45 31 -52 0 -54 -3 -22 -27z"/> <path d="M4125 4705 c1 -19 -4 -62 -12 -95 -12 -53 -11 -56 14 -25 38 48 59 44 32 -6 -12 -23 -18 -56 -13 -75 6 -24 17 -14 38 36 40 92 60 200 37 200 -10 0 -22 -20 -27 -45 l-9 -45 -2 45 c-2 25 -16 45 -32 45 -16 0 -27 -16 -26 -35z"/> <path d="M4310 4720 c-7 -12 -21 -15 -31 -9 -11 6 -19 -14 -19 -45 0 -31 -6 -78 -13 -104 -9 -34 -6 -44 10 -34 38 24 27 -59 -15 -111 -52 -63 -74 -35 -29 36 35 57 35 57 -5 22 -23 -19 -51 -35 -63 -35 -12 0 -28 -16 -34 -35 -7 -19 -36 -62 -66 -95 -30 -33 -48 -52 -40 -41 30 38 14 54 -45 43 -33 -7 -87 -17 -120 -24 -35 -6 -55 -20 -47 -32 9 -15 -13 -17 -65 -8 -74 12 -76 11 -29 -15 29 -17 78 -24 124 -18 42 6 88 1 102 -11 17 -14 49 -12 104 7 43 15 86 22 94 17 9 -5 37 1 62 15 25 14 59 26 75 26 17 1 28 13 25 27 -3 14 8 45 24 69 29 41 30 41 22 -19 -8 -67 -69 -194 -70 -148 -1 21 -14 17 -47 -15 -26 -23 -62 -43 -80 -43 -19 0 -34 -10 -34 -22 0 -14 14 -16 35 -7 19 8 55 16 79 17 53 2 138 111 166 211 49 175 -8 482 -70 381z"/> <path d="M4440 4635 c0 -61 -6 -128 -12 -148 -11 -32 -9 -32 16 3 33 45 61 135 37 121 -8 -5 -16 18 -17 52 -3 111 -24 86 -24 -28z"/> <path d="M4746 4711 c-13 -23 -46 -34 -103 -35 -76 -1 -83 -5 -71 -43 17 -57 15 -55 86 -57 79 -3 95 14 60 59 -26 32 -25 33 8 7 31 -24 39 -23 63 10 50 68 76 3 95 -236 22 -284 36 -316 144 -315 79 0 80 1 34 27 -35 19 -40 30 -20 37 17 6 6 16 -28 25 -38 10 -53 24 -45 44 6 16 11 51 11 78 0 29 12 48 30 48 17 0 30 -9 30 -19 0 -29 94 -38 492 -49 l361 -9 39 93 c23 57 38 142 38 214 l0 119 -140 -5 c-77 -4 -205 -11 -285 -17 -87 -6 -145 -3 -145 9 0 27 -76 45 -85 20 -12 -36 -259 -39 -298 -4 -28 26 -51 28 -124 13 -58 -13 -97 -13 -110 0 -12 12 -26 7 -37 -14z m681 -201 c15 -39 42 -38 83 2 17 18 34 29 37 25 2 -4 18 -24 34 -46 16 -21 18 -32 5 -25 -13 8 -29 6 -36 -6 -17 -27 -144 -26 -161 2 -7 12 -30 17 -51 12 -23 -6 -38 0 -38 16 0 51 109 68 127 20z"/> <path d="M2325 4547 c-47 -17 -85 -39 -85 -49 0 -10 -12 -18 -27 -18 -32 0 -176 -150 -214 -222 -14 -26 -34 -54 -44 -61 -11 -7 -23 -37 -26 -66 -3 -30 -22 -67 -42 -82 -44 -33 -29 -36 42 -9 53 20 69 70 26 86 -39 14 -3 38 69 47 36 4 69 16 73 27 3 11 23 20 44 20 20 0 44 13 53 29 16 28 186 100 186 79 0 -6 14 4 32 21 18 18 48 27 68 21 20 -6 42 -2 49 9 8 12 2 21 -11 21 -24 0 -7 28 19 32 7 1 37 8 66 16 54 16 146 -37 125 -71 -6 -9 4 -11 21 -5 39 15 40 46 2 60 -16 6 -24 23 -19 37 8 20 -86 79 -132 81 -5 0 -21 8 -35 16 -13 9 -44 5 -69 -8 -33 -18 -46 -18 -52 -1 -9 28 -12 28 -119 -10z"/> <path d="M4042 4472 c-12 -23 -37 -64 -56 -90 -34 -47 -34 -48 8 -25 43 23 126 117 126 142 0 32 -58 11 -78 -27z"/> <path d="M4721 4346 c1 -20 9 -72 18 -116 l16 -80 3 104 c1 57 -7 109 -18 116 -11 7 -19 -4 -19 -24z"/> <path d="M4476 4242 c-41 -49 -27 -136 15 -94 33 33 60 132 36 132 -10 0 -33 -17 -51 -38z"/> <path d="M509 4110 c24 -131 50 -186 38 -80 -6 55 -20 109 -30 120 -12 13 -15 -2 -8 -40z"/> <path d="M5280 4060 c0 -11 34 -20 75 -20 56 1 67 6 45 20 -39 25 -120 25 -120 0z"/> <path d="M4053 4024 c34 -23 69 -50 76 -62 7 -12 29 -22 47 -21 23 0 16 10 -21 30 -69 38 -71 54 -5 37 31 -8 50 -4 50 10 0 12 -25 22 -55 22 -30 0 -77 6 -105 12 -45 11 -44 8 13 -28z"/> <path d="M4395 4046 c-31 -5 -50 -17 -44 -27 17 -28 76 -23 120 10 41 31 33 33 -76 17z"/> <path d="M2573 3927 c-35 -36 -13 -90 32 -76 59 18 62 22 48 58 -12 32 -56 41 -80 18z"/> <path d="M1644 3854 c-35 -36 -64 -79 -64 -95 0 -17 6 -21 15 -9 38 52 151 129 172 116 13 -7 11 2 -4 20 -38 46 -46 44 -119 -32z"/> <path d="M1953 3887 c-7 -8 -13 -27 -13 -44 0 -17 -19 -50 -42 -75 -24 -26 -33 -49 -21 -56 11 -7 26 6 33 28 7 22 20 40 29 40 9 0 20 27 25 60 10 65 9 67 -11 47z"/> <path d="M1470 3840 c-7 -11 -48 -20 -91 -20 -84 0 -120 -80 -49 -107 17 -7 30 -26 30 -42 0 -17 9 -31 19 -31 11 0 15 14 8 30 -6 17 -1 30 12 30 30 0 81 50 81 80 0 12 8 17 18 11 15 -9 42 30 42 61 0 17 -58 7 -70 -12z"/> <path d="M4292 3780 c16 -99 24 -120 46 -120 21 0 -1 94 -36 154 -17 29 -19 22 -10 -34z"/> <path d="M2765 3772 c-22 -46 -20 -52 15 -52 43 0 46 9 23 67 -13 33 -17 31 -38 -15z"/> <path d="M2503 3735 c5 -87 14 -100 47 -67 23 22 24 37 4 80 -33 71 -55 65 -51 -13z"/> <path d="M2986 3733 c4 -12 18 -24 31 -25 13 -2 32 -4 43 -5 11 -2 20 -21 20 -43 0 -23 13 -40 32 -40 63 0 13 -50 -54 -53 -37 -2 -81 -4 -97 -5 -22 -2 -23 -8 -6 -25 31 -31 192 -45 173 -14 -25 40 139 -2 173 -45 17 -22 37 -33 45 -25 31 31 74 22 74 -15 0 -21 10 -38 21 -38 12 0 17 7 12 15 -5 9 13 26 40 39 44 21 51 18 68 -25 11 -30 34 -49 59 -49 49 0 52 31 5 58 -21 13 -25 21 -9 21 14 1 2 24 -28 51 -65 60 -89 66 -38 10 49 -54 -28 -47 -93 8 -23 19 -68 33 -104 31 -96 -5 -116 -1 -103 20 6 11 -13 26 -43 34 -30 7 -76 38 -101 68 -48 57 -135 95 -120 52z"/> <path d="M1455 3665 c-19 -4 -36 -23 -38 -41 -1 -19 -4 -54 -7 -78 -2 -25 3 -40 13 -34 10 6 13 19 6 29 -6 10 2 14 18 8 22 -9 67 112 46 122 -2 1 -19 -2 -38 -6z"/> <path d="M3980 3543 c0 -57 61 -135 87 -110 7 8 13 3 13 -10 0 -12 14 -23 30 -23 44 0 37 66 -11 96 -22 14 -34 35 -27 48 8 13 5 17 -7 9 -11 -7 -26 1 -32 17 -20 50 -53 33 -53 -27z"/> <path d="M2193 3544 c-27 -42 21 -63 57 -24 35 39 35 40 -6 40 -23 0 -46 -7 -51 -16z"/> <path d="M2560 3457 c1 -50 29 -76 61 -56 19 12 21 18 4 19 -14 0 -23 10 -20 23 3 12 -6 26 -20 31 -14 5 -25 -3 -25 -17z"/> <path d="M5826 3456 c-11 -14 -21 -39 -21 -56 0 -56 -15 -90 -45 -104 -25 -11 -24 -13 5 -15 19 0 35 -14 35 -31 0 -36 23 -39 56 -6 29 29 32 83 4 66 -28 -18 -25 17 5 49 20 21 20 24 0 13 -17 -10 -25 1 -25 32 1 37 4 40 20 16 11 -16 19 -21 19 -10 0 46 -32 73 -53 46z"/> <path d="M2740 3390 c-22 -42 -23 -55 -1 -75 20 -20 28 -20 35 -1 6 17 22 13 51 -15 44 -40 115 -53 115 -20 0 10 -17 31 -38 45 -20 15 -41 44 -45 66 -11 61 -84 61 -117 0z"/> <path d="M4212 3417 c6 -9 0 -17 -13 -17 -18 0 -18 -7 -2 -27 13 -15 16 -33 9 -41 -8 -8 8 -6 35 4 68 25 74 77 11 89 -28 5 -46 2 -40 -8z"/> <path d="M2054 3328 c8 -50 3 -77 -15 -89 -16 -9 -23 -22 -16 -29 15 -15 117 31 117 53 0 9 18 17 40 17 23 0 40 13 40 32 0 22 -11 28 -33 20 -45 -18 -107 5 -107 39 0 16 -8 29 -19 29 -10 0 -13 -32 -7 -72z"/> <path d="M3180 3340 c0 -17 141 -100 171 -100 7 0 -15 27 -48 60 -58 59 -123 80 -123 40z"/> <path d="M3560 3323 c0 -16 88 -64 116 -62 20 1 -77 79 -98 79 -10 0 -18 -8 -18 -17z"/> <path d="M3395 3263 c-11 -41 37 -103 79 -103 12 0 27 -13 33 -30 7 -16 21 -30 31 -30 11 0 5 26 -14 59 -18 32 -39 49 -46 39 -6 -11 -26 8 -42 42 -27 56 -32 58 -41 23z"/> <path d="M1190 3120 c-16 -26 5 -200 30 -240 18 -29 18 -27 49 130 23 113 21 120 -22 126 -24 4 -49 -4 -57 -16z"/> <path d="M2185 3070 c-35 -40 -3 -52 106 -37 86 12 91 16 58 40 -47 35 -132 33 -164 -3z"/> <path d="M1410 2846 c-75 -19 -110 -68 -110 -156 0 -103 64 -176 139 -156 39 10 45 6 35 -20 -7 -19 2 -48 22 -67 53 -54 58 19 5 86 -44 57 -55 165 -18 202 23 23 8 127 -18 123 -8 -2 -33 -7 -55 -12z"/> <path d="M2266 2773 c-124 -34 -135 -54 -74 -134 51 -67 52 -68 40 -14 -13 55 -13 55 98 55 105 0 270 -37 270 -61 0 -6 29 -8 65 -3 80 9 175 -25 175 -63 0 -45 -102 -76 -211 -63 -54 7 -112 13 -129 14 -16 1 -41 10 -54 20 -13 11 -34 13 -46 6 -12 -7 -34 -3 -50 10 -40 33 -78 5 -42 -31 16 -16 38 -29 49 -29 11 0 23 -9 27 -21 14 -42 275 -39 415 6 163 52 165 53 142 131 -17 60 4 93 26 39 6 -16 10 -14 11 7 7 126 -433 208 -712 131z m530 -77 c3 -17 -9 -37 -28 -44 -44 -17 -49 -10 -35 45 13 49 53 48 63 -1z"/> <path d="M3600 2584 c-58 -47 -20 -124 60 -124 28 0 81 -9 119 -20 60 -17 76 -13 118 25 36 33 51 38 58 18 12 -34 145 -167 145 -145 0 10 22 23 49 30 62 15 111 92 59 92 -18 0 -61 17 -96 38 -175 108 -432 151 -512 86z"/> <path d="M4371 2501 c-7 -11 -25 -14 -41 -8 -19 7 -37 -8 -50 -42 -30 -80 -24 -101 17 -64 74 67 109 44 94 -62 -18 -118 -39 -142 -94 -108 -51 32 -76 5 -77 -84 0 -59 68 -65 132 -12 31 26 75 225 63 287 -5 29 -2 52 8 52 9 0 17 14 17 30 0 33 -51 41 -69 11z"/> <path d="M1800 2474 c0 -16 13 -60 30 -97 l30 -67 -5 88 c-4 79 -55 149 -55 76z"/> <path d="M3620 2381 c0 -28 78 -97 165 -146 41 -23 75 -54 75 -68 0 -13 10 -31 23 -39 14 -9 18 -5 9 9 -19 31 35 83 85 83 123 0 19 70 -130 87 -35 4 -94 27 -132 50 -77 48 -95 52 -95 24z"/> <path d="M1940 2247 c0 -52 70 -143 93 -121 9 9 5 23 -7 31 -13 7 -38 41 -55 73 -26 51 -31 54 -31 17z"/> <path d="M1480 2200 c-12 -22 -38 -40 -59 -40 -37 0 -61 -37 -61 -93 0 -44 -58 -98 -67 -63 -42 151 -36 146 -153 145 -583 -4 -1452 -61 -1037 -67 l113 -2 -3 -65 c-3 -58 3 -65 51 -67 30 -1 52 7 50 18 -6 30 90 51 133 29 42 -21 93 10 55 34 -48 29 -20 63 53 64 41 0 147 3 235 7 152 7 160 5 160 -34 0 -48 29 -88 31 -44 1 16 9 12 19 -12 16 -37 17 -37 19 -3 1 26 11 33 33 25 17 -7 49 -12 70 -12 21 0 38 -14 38 -30 0 -17 23 -40 50 -50 28 -10 50 -29 50 -42 0 -13 14 -116 31 -231 37 -252 -12 -418 -81 -270 -12 27 -38 43 -67 43 l-48 0 52 -42 c30 -22 49 -49 43 -58 -6 -10 4 -26 23 -36 42 -24 -124 -104 -216 -104 -31 0 -57 -8 -57 -19 0 -10 -25 -18 -55 -17 -55 0 -93 -14 -223 -82 -43 -23 -59 -41 -45 -50 13 -8 23 -6 23 4 0 18 217 14 235 -5 5 -5 17 -39 25 -75 l16 -66 2 63 c1 34 16 74 33 88 28 23 30 19 16 -33 -9 -32 -15 -89 -13 -128 2 -40 -10 -84 -28 -105 -20 -21 -23 -35 -9 -35 13 0 24 11 24 25 2 27 37 -51 52 -115 17 -72 20 -79 71 -189 29 -60 47 -122 41 -138 -7 -17 -3 -24 8 -17 21 13 120 -104 112 -131 -3 -8 9 -15 25 -15 17 0 30 -13 30 -30 0 -16 10 -30 22 -30 12 0 17 -15 10 -32 -9 -23 -4 -29 18 -21 18 7 30 0 30 -18 0 -23 30 -29 141 -29 l141 0 -96 82 c-206 177 -354 404 -416 639 -88 329 41 504 435 588 84 18 69 58 -15 42 -38 -7 -70 -7 -70 -1 0 7 -17 127 -39 266 -21 140 -41 304 -45 364 l-6 110 69 7 c126 12 201 -13 201 -67 0 -43 76 -150 107 -150 7 0 -9 39 -36 86 -26 47 -54 119 -62 160 -20 110 -144 158 -189 74z m-1107 -156 c-7 -10 -35 -14 -64 -9 l-51 10 46 24 c47 25 90 10 69 -25z"/> <path d="M5914 2047 c-21 -21 5 -47 47 -47 22 0 39 14 39 30 0 30 -61 42 -86 17z"/> <path d="M1662 1894 c-1 -31 -12 -76 -25 -99 -17 -32 -17 -45 0 -51 13 -4 23 -38 23 -74 0 -37 9 -73 20 -80 24 -15 25 165 1 280 -14 66 -17 70 -19 24z"/> <path d="M390 1869 c-63 -51 -44 -135 39 -172 39 -18 46 -29 28 -50 -12 -15 -15 -27 -7 -27 8 0 3 -15 -13 -34 -24 -29 -23 -32 9 -20 20 8 31 5 25 -5 -7 -10 -3 -24 9 -31 11 -7 20 -3 20 9 0 30 32 26 67 -9 27 -27 30 -26 27 15 -3 49 -38 95 -73 95 -30 0 -26 17 19 75 22 28 40 63 40 78 0 22 8 23 37 4 41 -25 152 -7 133 22 -17 29 29 47 59 22 20 -17 30 -16 37 3 7 15 12 10 14 -14 8 -107 31 -155 56 -119 30 42 134 20 141 -29 5 -40 0 -46 -35 -37 -23 6 -37 4 -32 -5 6 -9 -1 -21 -15 -27 -19 -7 -18 -15 5 -31 27 -19 27 -21 0 -22 -24 0 -25 -4 -3 -17 14 -10 23 -30 20 -46 -8 -32 10 -41 51 -25 16 6 23 27 17 50 -6 26 7 52 43 80 65 51 65 66 0 95 -41 19 -50 35 -43 74 5 27 2 49 -8 49 -9 0 -15 11 -12 25 3 14 -8 26 -25 28 -16 1 -39 4 -50 7 -11 2 -74 3 -140 1 -147 -4 -245 3 -265 20 -25 21 -133 1 -175 -32z"/> <path d="M4204 1825 c-28 -53 -45 -165 -26 -165 9 0 26 45 36 100 21 106 19 122 -10 65z"/> <path d="M2384 1771 c-21 -27 -42 -46 -46 -42 -5 4 -9 -23 -10 -61 -1 -44 8 -68 25 -68 23 0 37 49 30 103 -1 7 25 18 58 24 54 11 58 16 35 53 -33 52 -45 50 -92 -9z"/> <path d="M240 1770 c-36 -43 -10 -103 31 -69 23 19 25 29 7 40 -13 8 -17 25 -9 37 20 32 0 27 -29 -8z"/> <path d="M660 1674 c0 -14 11 -37 24 -50 13 -13 16 -30 8 -39 -8 -8 -28 2 -43 24 -16 21 -35 31 -43 23 -9 -8 7 -32 34 -52 54 -41 68 -35 89 35 10 34 6 45 -19 45 -18 0 -27 9 -20 20 7 11 3 20 -9 20 -11 0 -21 -12 -21 -26z"/> <path d="M3764 1595 c-21 -25 -20 -36 5 -61 17 -17 31 -41 31 -53 0 -11 9 -21 20 -21 25 0 26 26 2 51 -10 10 -22 41 -25 67 -6 43 -10 45 -33 17z"/> <path d="M2525 1530 c-38 -43 -33 -47 70 -59 52 -7 136 -25 185 -40 50 -15 162 -38 250 -52 88 -14 168 -29 178 -35 20 -11 94 -18 318 -31 113 -7 168 -19 196 -45 36 -32 42 -32 71 -4 34 34 20 167 -15 145 -10 -7 -15 -18 -10 -26 15 -24 -192 -9 -312 24 -62 16 -130 25 -152 20 -21 -6 -96 7 -166 28 -71 22 -181 41 -246 43 -66 2 -150 17 -188 33 -86 36 -147 36 -179 -1z"/> <path d="M1592 1523 c-19 -31 11 -100 40 -89 37 14 37 106 -1 106 -16 0 -33 -7 -39 -17z"/> <path d="M513 1455 c-11 -42 -14 -43 -45 -12 -31 31 -36 31 -74 -4 -23 -21 -36 -44 -30 -50 7 -6 24 1 39 17 29 31 117 -7 117 -51 0 -11 -15 -8 -35 6 -19 15 -12 4 15 -24 33 -34 55 -44 64 -29 8 12 6 25 -5 29 -37 13 -18 39 21 29 27 -7 40 -1 40 19 0 17 -19 35 -43 41 -28 8 -38 22 -30 43 6 17 4 31 -5 31 -10 0 -23 -20 -29 -45z"/> <path d="M5851 1422 c-6 -9 10 -23 34 -29 75 -21 115 -15 115 17 0 33 -129 44 -149 12z"/> <path d="M2413 1287 c-24 -25 -13 -44 32 -58 25 -8 61 -28 80 -45 59 -51 60 -13 1 53 -54 62 -86 76 -113 50z"/> <path d="M1358 1194 c-163 -110 -195 -404 -70 -650 156 -308 658 -670 719 -519 8 20 10 20 11 0 1 -16 32 -24 87 -23 85 1 85 1 25 23 -33 11 -91 42 -130 68 -62 42 -142 70 -90 32 52 -39 71 -104 25 -86 -25 9 -43 27 -40 39 3 12 -7 22 -22 22 -15 0 -48 18 -73 40 -25 22 -53 40 -61 40 -20 0 -149 110 -259 221 -222 224 -265 630 -83 780 85 70 58 79 -39 13z"/> <path d="M3080 1225 c0 -11 27 -31 59 -45 33 -13 66 -43 73 -67 21 -64 92 -153 123 -153 15 0 47 -11 71 -24 73 -40 111 -38 143 9 39 55 40 95 3 95 -16 0 -32 10 -36 23 -6 17 -20 17 -53 -1 -46 -25 -142 35 -143 88 0 11 -18 31 -39 45 -54 33 -201 55 -201 30z"/> <path d="M485 1181 c-30 -19 -98 -34 -151 -36 -105 -2 -175 -39 -130 -68 21 -14 20 -21 -4 -37 -25 -16 -22 -19 13 -20 23 0 53 14 67 30 14 17 42 30 63 30 21 0 72 15 113 34 41 19 110 39 154 45 44 6 76 20 70 31 -16 32 -135 27 -195 -9z"/> <path d="M2661 1181 c-16 -10 -39 -13 -50 -6 -12 7 -8 -3 7 -22 32 -40 13 -72 -22 -37 -34 34 -50 30 -61 -15 -9 -34 -1 -38 68 -36 63 3 81 12 90 48 15 63 3 90 -32 68z"/> <path d="M2914 1158 c-8 -29 -24 -39 -56 -35 -25 4 -48 -5 -54 -21 -6 -19 1 -24 20 -17 17 6 42 -6 57 -27 36 -49 67 -50 40 -1 -24 46 -10 63 57 65 29 0 41 6 27 11 -14 6 -25 23 -25 39 0 44 -54 33 -66 -14z"/> <path d="M4 1106 c-2 -32 5 -46 21 -41 35 12 42 68 10 80 -17 7 -28 -7 -31 -39z"/> <path d="M1611 1135 c-18 -56 -25 -208 -12 -245 22 -58 36 3 37 155 1 111 -8 143 -25 90z"/> <path d="M2370 1105 c4 -30 8 -62 9 -70 0 -8 15 -15 31 -15 29 0 26 71 -4 125 -20 36 -43 10 -36 -40z"/> <path d="M2475 990 c12 -60 40 -83 69 -54 25 25 -14 104 -52 104 -17 0 -23 -17 -17 -50z"/> <path d="M2670 974 c-23 -51 -16 -134 11 -134 11 0 19 18 19 40 0 22 -11 40 -24 40 -13 0 -6 13 15 29 26 19 32 35 19 49 -13 13 -27 6 -40 -24z"/> <path d="M5825 867 c-45 -18 -26 -69 34 -90 33 -11 77 -49 100 -84 l40 -63 1 63 c0 130 -82 211 -175 174z"/> <path d="M4113 827 c-7 -8 -13 -34 -13 -59 0 -24 -7 -48 -15 -51 -60 -27 -109 -122 -118 -230 -5 -64 -17 -148 -25 -187 -8 -38 -17 -122 -20 -185 l-4 -115 122 0 c70 0 117 8 111 19 -6 10 7 24 29 31 22 7 40 30 40 51 0 22 9 39 19 39 11 0 15 12 9 27 -6 16 4 42 21 59 45 45 -10 214 -69 214 -34 0 6 -77 45 -87 34 -9 37 -16 18 -40 -14 -16 -22 -41 -19 -56 8 -36 -48 -35 -60 1 -6 19 0 23 18 12 16 -9 21 -9 13 0 -8 9 -6 27 5 40 13 16 10 23 -13 23 -18 0 -37 -16 -42 -36 -5 -21 -20 -37 -32 -38 -13 0 -2 -18 24 -40 26 -21 38 -39 26 -39 -23 0 -94 -119 -87 -145 2 -8 -8 -15 -23 -15 -36 0 -62 122 -30 142 15 9 19 45 10 106 -7 51 -5 92 5 92 9 0 18 20 19 45 3 96 40 199 65 184 12 -8 15 10 7 44 -8 39 -6 49 7 30 16 -23 21 -23 28 0 8 22 16 22 46 -3 34 -28 35 -27 12 17 -16 29 -36 42 -55 35 -19 -8 -27 -3 -21 13 5 14 19 23 32 20 14 -3 10 15 -10 45 -33 51 -51 60 -75 37z"/> <path d="M2145 776 c3 -16 -10 -24 -35 -20 -39 5 -39 5 -1 -25 21 -17 46 -31 55 -31 23 0 20 75 -4 90 -12 7 -19 1 -15 -14z"/> <path d="M4386 743 c0 -32 65 -103 95 -103 15 0 50 -116 43 -143 -1 -7 9 -18 24 -24 20 -7 25 3 18 33 -9 38 -3 36 44 -16 30 -34 49 -45 43 -26 -8 24 -2 31 18 23 33 -13 37 -31 11 -58 -11 -10 -27 -50 -37 -88 -12 -49 -32 -74 -66 -83 -27 -8 -38 -15 -24 -16 39 -3 22 -102 -17 -102 -24 0 -31 -12 -25 -37 6 -23 -3 -42 -22 -50 -19 -7 -28 -4 -21 7 18 30 -9 24 -41 -9 -48 -47 -35 -53 100 -49 139 5 169 28 129 101 -12 22 -16 46 -10 52 7 6 12 2 12 -10 0 -13 18 -21 40 -20 22 2 40 10 40 18 0 7 6 30 14 50 11 30 8 33 -15 14 -24 -19 -30 -15 -32 25 -2 37 3 44 22 29 30 -25 52 -7 38 29 -6 16 4 25 26 23 20 -2 36 10 37 25 0 16 14 32 30 37 24 6 25 4 3 -11 -19 -13 -21 -23 -5 -33 12 -7 22 -22 22 -33 0 -11 -8 -15 -18 -9 -10 6 -14 -7 -8 -29 6 -22 20 -46 32 -53 11 -7 15 -5 9 5 -6 10 1 36 17 58 38 51 19 -65 -26 -164 -17 -36 -26 -76 -21 -90 5 -14 23 5 40 44 74 169 77 173 68 126 -5 -25 3 -48 19 -54 21 -8 23 -23 8 -63 -11 -28 -20 -56 -20 -60 0 -5 46 -9 101 -9 116 0 116 5 29 180 -25 50 -52 113 -60 140 -9 28 -35 69 -58 93 -23 24 -68 71 -101 105 -70 75 -189 144 -311 180 -49 14 -99 33 -110 41 -47 35 -83 36 -84 4z"/> <path d="M5647 645 c-160 -173 -286 -465 -189 -440 34 9 42 2 42 -34 0 -61 40 -171 62 -171 10 0 18 27 18 60 0 48 9 60 45 62 38 2 39 4 7 12 -34 9 -36 24 -25 153 21 222 37 277 65 206 7 -18 21 -33 31 -33 11 0 13 11 4 25 -31 49 -20 92 26 104 33 8 47 26 47 60 0 27 9 54 19 60 27 17 61 -55 49 -102 -6 -22 17 -163 51 -314 33 -151 61 -279 61 -284 0 -5 9 -9 20 -9 31 0 24 253 -10 333 -39 93 -38 129 1 114 28 -11 28 -4 -1 65 -19 43 -39 92 -45 108 -66 166 -140 173 -278 25z"/> <path d="M2580 519 c0 -13 -13 -18 -29 -12 -17 6 -35 2 -42 -9 -7 -12 -26 -16 -41 -10 -15 6 -28 2 -28 -9 0 -10 8 -19 19 -19 10 0 32 -14 50 -31 44 -45 106 -20 106 42 0 27 -8 55 -17 61 -10 5 -18 0 -18 -13z"/> <path d="M4247 504 c-14 -9 -16 -31 -6 -57 25 -67 50 -70 55 -7 5 61 -14 86 -49 64z"/> <path d="M2654 440 c-8 -33 0 -40 48 -40 63 0 81 47 26 68 -50 19 -63 15 -74 -28z"/> <path d="M4400 448 c0 -16 12 -22 30 -15 17 6 30 2 30 -9 0 -11 -9 -24 -19 -27 -10 -4 -1 -29 20 -57 l40 -50 -9 53 c-6 36 1 58 21 65 50 20 18 61 -49 64 -42 2 -64 -6 -64 -24z"/> <path d="M3180 347 c-27 -17 -70 -63 -95 -101 -69 -105 -57 -138 25 -71 24 19 -7 -12 -69 -70 -120 -113 -117 -144 3 -44 67 55 161 176 216 279 27 50 -7 53 -80 7z"/> <path d="M2541 245 c0 -15 -29 -25 -71 -25 -38 0 -70 -9 -70 -20 0 -11 11 -20 25 -20 17 -1 15 -7 -5 -20 -16 -11 -21 -20 -9 -20 12 0 31 10 43 22 15 15 33 12 62 -13 46 -40 184 -92 184 -70 0 8 12 14 26 14 32 0 134 66 134 88 0 9 -62 13 -137 8 -126 -7 -139 -4 -159 37 -12 24 -22 33 -23 19z"/> <path d="M4833 169 c6 -16 0 -43 -13 -59 -14 -17 -17 -30 -8 -30 9 0 5 -11 -8 -24 -34 -34 -30 -56 11 -54 23 1 26 5 9 12 -21 8 -18 19 9 49 45 50 54 110 18 124 -19 7 -25 1 -18 -18z"/> <path d="M5380 129 c-25 -65 -26 -129 -2 -129 10 0 21 40 25 90 8 103 4 111 -23 39z"/> <path d="M5687 154 c-19 -30 5 -35 85 -16 80 19 78 22 -18 29 -32 3 -62 -3 -67 -13z"/> </g> </svg> 